<svg xmlns="http://www.w3.org/2000/svg" xmlns:xlink="http://www.w3.org/1999/xlink" width="825" height="673" viewBox="0 0 825 673">
  <defs>
    <clipPath id="clip-path">
      <rect id="Rectangle_3415" data-name="Rectangle 3415" width="825" height="673" transform="translate(1927 1742)" fill="#fff"/>
    </clipPath>
    <filter id="Rectangle_3377" x="4" y="4" width="1055" height="665" filterUnits="userSpaceOnUse">
      <feOffset dy="3" input="SourceAlpha"/>
      <feGaussianBlur stdDeviation="3" result="blur"/>
      <feFlood flood-color="#c5e0ef" flood-opacity="0.678"/>
      <feComposite operator="in" in2="blur"/>
      <feComposite in="SourceGraphic"/>
    </filter>
    <clipPath id="clip-path-2">
      <rect width="6" height="172" fill="none"/>
    </clipPath>
    <linearGradient id="linear-gradient" y1="0.5" x2="1" y2="0.5" gradientUnits="objectBoundingBox">
      <stop offset="0" stop-color="#fcfcfc" stop-opacity="0"/>
      <stop offset="0.768" stop-color="#fcfcfc"/>
      <stop offset="1" stop-color="#fcfcfc"/>
    </linearGradient>
  </defs>
  <g id="Mask_Group_89" data-name="Mask Group 89" transform="translate(-1927 -1742)" clip-path="url(#clip-path)">
    <g transform="matrix(1, 0, 0, 1, 1927, 1742)" filter="url(#Rectangle_3377)">
      <rect id="Rectangle_3377-2" data-name="Rectangle 3377" width="1037" height="647" transform="translate(13 10)" fill="#fff"/>
    </g>
    <line id="Line_1251" data-name="Line 1251" x2="940" transform="translate(1998 2193)" fill="none" stroke="#e7edf4" stroke-width="2"/>
    <rect id="Rectangle_3382" data-name="Rectangle 3382" width="1037" height="169" transform="translate(1940 1752)" fill="#f0f5fa"/>
    <line id="Line_2002" data-name="Line 2002" x2="940" transform="translate(1998 2294)" fill="none" stroke="#e7edf4" stroke-width="2"/>
    <path id="Path_1894" data-name="Path 1894" d="M1.16-3.92C2.8-1.52,6.12.48,10.64.48c5.88,0,9.44-3.24,9.44-7.68a6.71,6.71,0,0,0-6.16-6.56c2.52-.44,5.76-2.36,5.76-6.2,0-4.52-3.92-7.12-9.04-7.12a11.559,11.559,0,0,0-9.12,4.12l1.84,2.08a9.039,9.039,0,0,1,7.04-3.24c3.24,0,5.96,1.6,5.96,4.56,0,3.08-2.84,4.4-6.2,4.4-1.08,0-2.32,0-2.76-.04v3.04c.4-.04,1.64-.04,2.76-.04,3.92,0,6.64,1.4,6.64,4.72,0,3.08-2.36,5-6.24,5A9.266,9.266,0,0,1,3.12-6Zm25.76.12c2,2.64,4.88,4.28,9.4,4.28,5.36,0,9.48-3.36,9.48-8.8a8.173,8.173,0,0,0-8.48-8.52,9.023,9.023,0,0,0-6.24,2.4v-9.28h13v-2.96H27.76v14.4l2.44.84a8.363,8.363,0,0,1,6.16-2.52c3.6,0,6.12,2.24,6.12,5.76,0,3.24-2.52,5.72-6.16,5.72A8.781,8.781,0,0,1,28.96-6Z" transform="translate(2169 1871)" fill="#104e8d"/>
    <path id="Path_1896" data-name="Path 1896" d="M22.04,0h3.32V-26.68H22.04V-15.2H6.44V-26.68H3.12V0H6.44V-12.24h15.6ZM33.6,0h3.32V-10.6h7.4c5.28,0,8.36-3.68,8.36-8.04s-3-8.04-8.36-8.04H33.6ZM49.24-18.64a4.959,4.959,0,0,1-5.32,5.08h-7V-23.72h7A4.959,4.959,0,0,1,49.24-18.64ZM71.4,0H88.88V-2.96H74.72v-9.2H88.6v-2.96H74.72v-8.6H88.88v-2.96H71.4ZM96.04,0h3V-26.68h-3Zm12.48-22.56a2.049,2.049,0,0,0,2.04-2.04,2.015,2.015,0,0,0-2.04-2,2.006,2.006,0,0,0-2,2A2.041,2.041,0,0,0,108.52-22.56ZM107.04,0h3V-19.32h-3Zm15.88.48a4.9,4.9,0,0,0,3.6-1.24L125.64-3a2.9,2.9,0,0,1-2.04.8c-1.32,0-1.96-1.04-1.96-2.48v-12h3.92v-2.64h-3.92V-24.6h-3v5.28h-3.2v2.64h3.2V-4.04C118.64-1.16,120.08.48,122.92.48Zm7.76-10.16c0,6.04,4.12,10.16,9.84,10.16a10.5,10.5,0,0,0,7.68-2.96l-1.44-1.96A8.445,8.445,0,0,1,140.8-2a6.808,6.808,0,0,1-6.96-6.68h15.64v-.76c0-5.8-3.44-10.36-9.28-10.36C134.68-19.8,130.68-15.28,130.68-9.68Zm9.48-7.64a6.262,6.262,0,0,1,6.36,6.44H133.84C134-13.84,136.04-17.32,140.16-17.32ZM156.44,0h9.12c8.28,0,13.68-5.72,13.68-13.32,0-7.56-5.4-13.36-13.68-13.36h-9.12Zm3.32-2.96V-23.72h5.8c6.6,0,10.24,4.64,10.24,10.4,0,5.72-3.76,10.36-10.24,10.36Zm28.04-19.6a2.049,2.049,0,0,0,2.04-2.04,2.015,2.015,0,0,0-2.04-2,2.006,2.006,0,0,0-2,2A2.041,2.041,0,0,0,187.8-22.56ZM186.32,0h3V-19.32h-3Zm9.32-2.56a10.277,10.277,0,0,0,7.8,3.04c5,0,7.6-2.6,7.6-5.84,0-4.28-3.88-5.24-7.24-6-2.52-.6-4.72-1.2-4.72-3.08,0-1.72,1.64-2.92,4.28-2.92a7.526,7.526,0,0,1,5.76,2.44l1.4-2.08a9.776,9.776,0,0,0-7.16-2.8c-4.6,0-7.2,2.56-7.2,5.56,0,4,3.72,4.88,7,5.64,2.6.64,4.96,1.32,4.96,3.44,0,1.88-1.6,3.2-4.56,3.2a8.754,8.754,0,0,1-6.36-2.76Zm25.28,9.92V-2.92a7.917,7.917,0,0,0,6.52,3.4c5.08,0,8.6-3.92,8.6-10.16,0-6.28-3.52-10.12-8.6-10.12a8.076,8.076,0,0,0-6.52,3.36v-2.88h-3V7.36ZM232.88-9.68c0,4.28-2.32,7.48-6.2,7.48a7.177,7.177,0,0,1-5.76-3.12v-8.72a7.143,7.143,0,0,1,5.76-3.08C230.56-17.12,232.88-13.96,232.88-9.68Zm10,9.68h3V-26.68h-3Zm23.08,0h3V-13.28c0-4.68-3.4-6.52-7.48-6.52a10.113,10.113,0,0,0-7.72,3.2l1.4,2.08a7.674,7.674,0,0,1,5.92-2.68c2.8,0,4.88,1.48,4.88,4.08v3.48a8.078,8.078,0,0,0-6.4-2.64c-3.28,0-6.76,2.04-6.76,6.36,0,4.2,3.48,6.4,6.76,6.4a8.357,8.357,0,0,0,6.4-2.68Zm0-4.08a6.47,6.47,0,0,1-5.32,2.4c-2.8,0-4.76-1.76-4.76-4.2,0-2.48,1.96-4.24,4.76-4.24a6.47,6.47,0,0,1,5.32,2.4Zm10.4,8.92-.48,2.72a9.739,9.739,0,0,0,2.2.28,5.743,5.743,0,0,0,5.68-3.92l9.68-23.24h-3.28l-6.4,15.84-6.44-15.84h-3.24L282.16.2l-1.28,2.92A2.778,2.778,0,0,1,278,5.16,4.6,4.6,0,0,1,276.36,4.84ZM311,0h17.48V-2.96H314.32v-9.2H328.2v-2.96H314.32v-8.6h14.16v-2.96H311Zm23.8,0h18.32V-2.96H340.04C347.48-8.84,353-13.8,353-19.24c0-5.32-4.52-7.84-8.96-7.84a11.556,11.556,0,0,0-9.28,4.2l2.04,2.12a8.921,8.921,0,0,1,7.24-3.36c2.76,0,5.56,1.48,5.56,4.88,0,4.6-5.2,9.04-14.8,16.6Zm37.32,0h3.32V-6.76h3.76V-9.68h-3.76v-17h-4.56L359.44-9.52v2.76h12.68Zm0-23.6V-9.68h-9.36ZM383.64-3.92c1.64,2.4,4.96,4.4,9.48,4.4,5.88,0,9.44-3.24,9.44-7.68a6.71,6.71,0,0,0-6.16-6.56c2.52-.44,5.76-2.36,5.76-6.2,0-4.52-3.92-7.12-9.04-7.12A11.559,11.559,0,0,0,384-22.96l1.84,2.08a9.039,9.039,0,0,1,7.04-3.24c3.24,0,5.96,1.6,5.96,4.56,0,3.08-2.84,4.4-6.2,4.4-1.08,0-2.32,0-2.76-.04v3.04c.4-.04,1.64-.04,2.76-.04,3.92,0,6.64,1.4,6.64,4.72,0,3.08-2.36,5-6.24,5A9.266,9.266,0,0,1,385.6-6ZM423.76,0h3V-26.68h-3V-16.4a8.077,8.077,0,0,0-6.52-3.4c-5.08,0-8.6,4-8.6,10.16,0,6.28,3.56,10.12,8.6,10.12a8.134,8.134,0,0,0,6.52-3.36Zm0-5.24a7.186,7.186,0,0,1-5.8,3.04c-3.88,0-6.2-3.16-6.2-7.44s2.32-7.48,6.2-7.48a7.253,7.253,0,0,1,5.8,3.12ZM446.24,0h18.32V-2.96H451.48c7.44-5.88,12.96-10.84,12.96-16.28,0-5.32-4.52-7.84-8.96-7.84a11.556,11.556,0,0,0-9.28,4.2l2.04,2.12a8.921,8.921,0,0,1,7.24-3.36c2.76,0,5.56,1.48,5.56,4.88,0,4.6-5.2,9.04-14.8,16.6Zm24.52-3.92c1.64,2.4,4.96,4.4,9.48,4.4,5.88,0,9.44-3.24,9.44-7.68a6.71,6.71,0,0,0-6.16-6.56c2.52-.44,5.76-2.36,5.76-6.2,0-4.52-3.92-7.12-9.04-7.12a11.559,11.559,0,0,0-9.12,4.12l1.84,2.08A9.039,9.039,0,0,1,480-24.12c3.24,0,5.96,1.6,5.96,4.56,0,3.08-2.84,4.4-6.2,4.4-1.08,0-2.32,0-2.76-.04v3.04c.4-.04,1.64-.04,2.76-.04,3.92,0,6.64,1.4,6.64,4.72,0,3.08-2.36,5-6.24,5A9.266,9.266,0,0,1,472.72-6ZM496.28-1.8a2.22,2.22,0,0,0,2.2,2.2,2.22,2.22,0,0,0,2.2-2.2,2.22,2.22,0,0,0-2.2-2.2A2.22,2.22,0,0,0,496.28-1.8Zm10.88-4.96c0,4.56,4.28,7.24,9.56,7.24,5.24,0,9.56-2.72,9.56-7.24,0-3.56-3.04-6-6.36-7,3.08-.88,5.96-2.88,5.96-6.4,0-4.8-4.76-6.92-9.16-6.92-4.44,0-9.12,2.12-9.12,6.92,0,3.52,2.84,5.52,5.92,6.4C510.2-12.76,507.16-10.32,507.16-6.76Zm15.36-12.96c0,3.24-4.16,4.32-5.8,4.6-1.6-.28-5.8-1.36-5.8-4.6,0-2.76,2.56-4.4,5.8-4.4C519.92-24.12,522.52-22.48,522.52-19.72Zm.4,12.6c0,2.88-2.92,4.64-6.2,4.64-3.32,0-6.24-1.76-6.24-4.64,0-3.48,4.6-4.96,6.24-5.16C518.36-12.08,522.92-10.6,522.92-7.12Zm8.6-1.24h9.6V-11h-9.6Zm17.28-14.2a2.049,2.049,0,0,0,2.04-2.04,2.015,2.015,0,0,0-2.04-2,2.006,2.006,0,0,0-2,2A2.041,2.041,0,0,0,548.8-22.56ZM547.32,0h3V-19.32h-3Zm24.04,0h3V-13.56c0-4.2-2.12-6.24-6.16-6.24a9.583,9.583,0,0,0-6.88,3.28v-2.8h-3V0h3V-14.12a7.459,7.459,0,0,1,5.72-3c2.6,0,4.32,1.08,4.32,4.48Zm9.88-9.68c0,5.76,3.88,10.16,9.64,10.16a8.269,8.269,0,0,0,7.08-3.36l-2-1.84a5.825,5.825,0,0,1-4.92,2.52c-4.12,0-6.68-3.2-6.68-7.48s2.56-7.44,6.68-7.44a5.729,5.729,0,0,1,4.92,2.52l2-1.84a8.269,8.269,0,0,0-7.08-3.36C585.12-19.8,581.24-15.4,581.24-9.68Zm36,9.68h3V-13.64c0-4.2-2.12-6.16-6.16-6.16a9.6,9.6,0,0,0-6.92,3.28V-26.68h-3V0h3V-14.12a7.594,7.594,0,0,1,5.72-3c2.6,0,4.36,1,4.36,4.4Z" transform="translate(2290 1871)" fill="#104e8d"/>
    <path id="Path_1893" data-name="Path 1893" d="M1.32-5.32C1.32-2.04,3.22.24,7.3.24c4.04,0,5.94-2.26,5.94-5.58v-8H10.36v7.92A2.839,2.839,0,0,1,7.3-2.28,2.85,2.85,0,0,1,4.2-5.42v-7.92H1.32ZM25.68,0h2.74V-13.34H25.58V-4.7L19.4-13.34H16.48V0h2.84V-8.96Zm5.98,0H34.5V-13.34H31.66Zm9.16,0h2.86V-10.84h3.88v-2.5H36.92v2.5h3.9Zm8.1-1.88A7.687,7.687,0,0,0,54.58.24c3.6,0,5.34-1.84,5.34-4.28,0-2.96-2.8-3.62-5-4.12-1.54-.36-2.66-.64-2.66-1.54,0-.8.68-1.36,1.96-1.36A5.691,5.691,0,0,1,58.04-9.6l1.58-2.08a7.42,7.42,0,0,0-5.2-1.86c-3.14,0-5.06,1.8-5.06,4.02,0,2.98,2.8,3.58,4.98,4.08,1.54.36,2.7.7,2.7,1.7,0,.76-.76,1.5-2.32,1.5a5.849,5.849,0,0,1-4.24-1.8Z" transform="translate(2169 1821)" fill="#809aaf"/>
    <path id="Path_1895" data-name="Path 1895" d="M1.32,0H6.58c4.18,0,7.08-2.64,7.08-6.66s-2.9-6.68-7.08-6.68H1.32ZM4.16-2.5v-8.34H6.58a3.9,3.9,0,0,1,4.18,4.18A3.993,3.993,0,0,1,6.58-2.5ZM16.28,0h9.44V-2.46h-6.6v-3.1h6.46V-8H19.12v-2.9h6.6v-2.44H16.28ZM27.62-1.88A7.687,7.687,0,0,0,33.28.24c3.6,0,5.34-1.84,5.34-4.28,0-2.96-2.8-3.62-5-4.12-1.54-.36-2.66-.64-2.66-1.54,0-.8.68-1.36,1.96-1.36A5.691,5.691,0,0,1,36.74-9.6l1.58-2.08a7.42,7.42,0,0,0-5.2-1.86c-3.14,0-5.06,1.8-5.06,4.02,0,2.98,2.8,3.58,4.98,4.08,1.54.36,2.7.7,2.7,1.7,0,.76-.76,1.5-2.32,1.5a5.849,5.849,0,0,1-4.24-1.8ZM47.5.24a6.192,6.192,0,0,0,5.68-3.28L50.74-4.22A3.616,3.616,0,0,1,47.5-2.28a4.135,4.135,0,0,1-4.08-4.38,4.135,4.135,0,0,1,4.08-4.38A3.653,3.653,0,0,1,50.74-9.1l2.44-1.2a6.156,6.156,0,0,0-5.68-3.26,6.753,6.753,0,0,0-7,6.9A6.753,6.753,0,0,0,47.5.24ZM63.02,0h3.26l-3-5.08A3.828,3.828,0,0,0,66.2-9.04a4.154,4.154,0,0,0-4.48-4.3H55.48V0h2.84V-4.78H60.4Zm.28-9.06a1.841,1.841,0,0,1-2,1.84H58.32V-10.9H61.3A1.841,1.841,0,0,1,63.3-9.06ZM68.94,0h2.84V-13.34H68.94Zm6.08,0h2.84V-4.78h3.4a4.154,4.154,0,0,0,4.48-4.26,4.163,4.163,0,0,0-4.48-4.3H75.02Zm7.82-9.06a1.818,1.818,0,0,1-1.96,1.84H77.86V-10.9h3.02A1.83,1.83,0,0,1,82.84-9.06ZM91.18,0h2.86V-10.84h3.88v-2.5H87.28v2.5h3.9Zm9.16,0h2.84V-13.34h-2.84Zm5.44-6.66a6.7,6.7,0,0,0,6.96,6.9,6.7,6.7,0,0,0,6.98-6.9,6.7,6.7,0,0,0-6.98-6.9A6.7,6.7,0,0,0,105.78-6.66Zm11.02,0a4.06,4.06,0,0,1-4.06,4.38c-2.46,0-4.04-1.9-4.04-4.38,0-2.5,1.58-4.38,4.04-4.38A4.049,4.049,0,0,1,116.8-6.66ZM131.52,0h2.74V-13.34h-2.84V-4.7l-6.18-8.64h-2.92V0h2.84V-8.96Z" transform="translate(2290 1821)" fill="#809aaf"/>
    <path id="Rectangle_2624" data-name="Rectangle 2624" d="M0,0H25.522a12,12,0,0,1,12,12V44a0,0,0,0,1,0,0H0a0,0,0,0,1,0,0V0A0,0,0,0,1,0,0Z" transform="translate(1998 2125)" fill="#50a3ec" opacity="0.5"/>
    <path id="Path_1907" data-name="Path 1907" d="M1.56,0H3.22V-5.3h3.7A3.928,3.928,0,0,0,11.1-9.32a3.906,3.906,0,0,0-4.18-4.02H1.56ZM9.38-9.32A2.48,2.48,0,0,1,6.72-6.78H3.22v-5.08h3.5A2.48,2.48,0,0,1,9.38-9.32ZM19.76,0h1.5V-9.66h-1.5v7.1A3.7,3.7,0,0,1,16.9-1.1c-1.3,0-2.16-.5-2.16-2.2V-9.66h-1.5v6.82c0,2.1,1.06,3.08,3.08,3.08a4.725,4.725,0,0,0,3.44-1.6Zm4.5,0h1.5V-6.84a3.534,3.534,0,0,1,2.62-1.54,2.644,2.644,0,0,1,.6.06V-9.86A4.106,4.106,0,0,0,25.76-8.1V-9.66h-1.5ZM30.3-4.84A4.778,4.778,0,0,0,35.12.24a4.135,4.135,0,0,0,3.54-1.68l-1-.92A2.913,2.913,0,0,1,35.2-1.1c-2.06,0-3.34-1.6-3.34-3.74s1.28-3.72,3.34-3.72A2.864,2.864,0,0,1,37.66-7.3l1-.92A4.135,4.135,0,0,0,35.12-9.9,4.772,4.772,0,0,0,30.3-4.84ZM47.3,0h1.5V-6.82c0-2.1-1.06-3.08-3.08-3.08a4.8,4.8,0,0,0-3.46,1.64v-5.08h-1.5V0h1.5V-7.06a3.8,3.8,0,0,1,2.86-1.5c1.3,0,2.18.5,2.18,2.2ZM57.84,0h1.5V-6.64c0-2.34-1.7-3.26-3.74-3.26a5.057,5.057,0,0,0-3.86,1.6l.7,1.04A3.837,3.837,0,0,1,55.4-8.6c1.4,0,2.44.74,2.44,2.04v1.74a4.039,4.039,0,0,0-3.2-1.32,3.164,3.164,0,0,0-3.38,3.18A3.217,3.217,0,0,0,54.64.24a4.178,4.178,0,0,0,3.2-1.34Zm0-2.04a3.235,3.235,0,0,1-2.66,1.2,2.165,2.165,0,0,1-2.38-2.1,2.168,2.168,0,0,1,2.38-2.12,3.235,3.235,0,0,1,2.66,1.2Zm3.66.76A5.138,5.138,0,0,0,65.4.24c2.5,0,3.8-1.3,3.8-2.92,0-2.14-1.94-2.62-3.62-3-1.26-.3-2.36-.6-2.36-1.54,0-.86.82-1.46,2.14-1.46a3.763,3.763,0,0,1,2.88,1.22l.7-1.04a4.888,4.888,0,0,0-3.58-1.4c-2.3,0-3.6,1.28-3.6,2.78,0,2,1.86,2.44,3.5,2.82,1.3.32,2.48.66,2.48,1.72,0,.94-.8,1.6-2.28,1.6a4.377,4.377,0,0,1-3.18-1.38Zm9.58-3.56A4.79,4.79,0,0,0,76,.24a5.248,5.248,0,0,0,3.84-1.48l-.72-.98A4.222,4.222,0,0,1,76.14-1a3.4,3.4,0,0,1-3.48-3.34h7.82v-.38c0-2.9-1.72-5.18-4.64-5.18A4.831,4.831,0,0,0,71.08-4.84Zm4.74-3.82A3.131,3.131,0,0,1,79-5.44H72.66A3.223,3.223,0,0,1,75.82-8.66Zm11.76,2c0,3.94,2.66,6.9,6.62,6.9,3.94,0,6.62-2.96,6.62-6.9s-2.68-6.9-6.62-6.9C90.24-13.56,87.58-10.6,87.58-6.66Zm11.52,0c0,3.1-1.92,5.42-4.9,5.42-3,0-4.9-2.32-4.9-5.42,0-3.12,1.9-5.42,4.9-5.42C97.18-12.08,99.1-9.78,99.1-6.66ZM103.36,0h1.5V-6.84a3.534,3.534,0,0,1,2.62-1.54,2.644,2.644,0,0,1,.6.06V-9.86a4.106,4.106,0,0,0-3.22,1.76V-9.66h-1.5Zm13.6,0h1.5V-13.34h-1.5V-8.2a4.039,4.039,0,0,0-3.26-1.7c-2.54,0-4.3,2-4.3,5.08,0,3.14,1.78,5.06,4.3,5.06a4.067,4.067,0,0,0,3.26-1.68Zm0-2.62a3.593,3.593,0,0,1-2.9,1.52c-1.94,0-3.1-1.58-3.1-3.72s1.16-3.74,3.1-3.74A3.626,3.626,0,0,1,116.96-7Zm3.94-2.22A4.79,4.79,0,0,0,125.82.24a5.248,5.248,0,0,0,3.84-1.48l-.72-.98A4.222,4.222,0,0,1,125.96-1a3.4,3.4,0,0,1-3.48-3.34h7.82v-.38c0-2.9-1.72-5.18-4.64-5.18A4.831,4.831,0,0,0,120.9-4.84Zm4.74-3.82a3.131,3.131,0,0,1,3.18,3.22h-6.34A3.223,3.223,0,0,1,125.64-8.66ZM132.72,0h1.5V-6.84a3.534,3.534,0,0,1,2.62-1.54,2.644,2.644,0,0,1,.6.06V-9.86a4.106,4.106,0,0,0-3.22,1.76V-9.66h-1.5Zm10.86-4.18h4.8V-5.5h-4.8ZM155.7,0h1.66V-5.3h3.7a3.928,3.928,0,0,0,4.18-4.02,3.906,3.906,0,0,0-4.18-4.02H155.7Zm7.82-9.32a2.48,2.48,0,0,1-2.66,2.54h-3.5v-5.08h3.5A2.48,2.48,0,0,1,163.52-9.32Zm3.38,2.66c0,3.94,2.66,6.9,6.62,6.9,3.94,0,6.62-2.96,6.62-6.9s-2.68-6.9-6.62-6.9C169.56-13.56,166.9-10.6,166.9-6.66Zm11.52,0c0,3.1-1.92,5.42-4.9,5.42-3,0-4.9-2.32-4.9-5.42,0-3.12,1.9-5.42,4.9-5.42C176.5-12.08,178.42-9.78,178.42-6.66ZM185.96,0h1.22l1.2-3.62h2.26l.32-1.06h-2.22l1.34-3.98h2.18l.3-1.04h-2.14l1.22-3.64h-1.22l-1.2,3.64h-2.2l1.2-3.64h-1.24l-1.2,3.64h-2.2l-.32,1.04h2.16L184.1-4.68h-2.14l-.34,1.06h2.12L182.52,0h1.24l1.2-3.62h2.22Zm2.88-8.66-1.32,3.98h-2.2l1.32-3.98ZM199.96,0h1.66V-3.38h1.88V-4.84h-1.88v-8.5h-2.28l-5.72,8.58v1.38h6.34Zm0-11.8v6.96h-4.68ZM205.22,0h9.16V-1.48h-6.54c3.72-2.94,6.48-5.42,6.48-8.14,0-2.66-2.26-3.92-4.48-3.92a5.778,5.778,0,0,0-4.64,2.1l1.02,1.06a4.46,4.46,0,0,1,3.62-1.68,2.494,2.494,0,0,1,2.78,2.44c0,2.3-2.6,4.52-7.4,8.3Zm11.26-1.96a5.626,5.626,0,0,0,4.74,2.2c2.94,0,4.72-1.62,4.72-3.84a3.355,3.355,0,0,0-3.08-3.28,3.249,3.249,0,0,0,2.88-3.1c0-2.26-1.96-3.56-4.52-3.56a5.779,5.779,0,0,0-4.56,2.06l.92,1.04a4.519,4.519,0,0,1,3.52-1.62c1.62,0,2.98.8,2.98,2.28,0,1.54-1.42,2.2-3.1,2.2-.54,0-1.16,0-1.38-.02v1.52c.2-.02.82-.02,1.38-.02,1.96,0,3.32.7,3.32,2.36,0,1.54-1.18,2.5-3.12,2.5A4.633,4.633,0,0,1,217.46-3ZM229.46,0h1.84l5.46-12.2v-1.14h-9.1v1.48h7.18Z" transform="translate(2056.467 2140)" fill="#104e8d"/>
    <path id="Path_1906" data-name="Path 1906" d="M1.248,0H2.576V-4.24h2.96A3.143,3.143,0,0,0,8.88-7.456a3.125,3.125,0,0,0-3.344-3.216H1.248ZM7.5-7.456A1.984,1.984,0,0,1,5.376-5.424h-2.8V-9.488h2.8A1.984,1.984,0,0,1,7.5-7.456Zm2.7,2.128A5.2,5.2,0,0,0,15.5.192a5.212,5.212,0,0,0,5.3-5.52,5.212,5.212,0,0,0-5.3-5.52A5.2,5.2,0,0,0,10.208-5.328Zm9.216,0c0,2.48-1.536,4.336-3.92,4.336-2.4,0-3.92-1.856-3.92-4.336,0-2.5,1.52-4.336,3.92-4.336C17.888-9.664,19.424-7.824,19.424-5.328Z" transform="translate(2006 2152)" fill="#81b1db"/>
    <path id="Path_1908" data-name="Path 1908" d="M.608-1.5A5.285,5.285,0,0,0,4.7.192c2.88,0,3.936-1.584,3.936-3.136,0-2.24-1.984-2.784-3.728-3.248C3.552-6.56,2.32-6.88,2.32-7.952c0-1.008.912-1.7,2.192-1.7A4.084,4.084,0,0,1,7.6-8.368l.8-.976a5.018,5.018,0,0,0-3.792-1.488c-2.1,0-3.664,1.2-3.664,2.96,0,2.1,1.9,2.576,3.616,3.024,1.408.384,2.7.736,2.7,2.016,0,.816-.608,1.84-2.512,1.84a4.511,4.511,0,0,1-3.36-1.52Zm9.52-2.368A3.832,3.832,0,0,0,14.064.192,4.2,4.2,0,0,0,17.136-.992l-.576-.784A3.378,3.378,0,0,1,14.176-.8a2.723,2.723,0,0,1-2.784-2.672h6.256v-.3c0-2.32-1.376-4.144-3.712-4.144A3.864,3.864,0,0,0,10.128-3.872ZM13.92-6.928a2.5,2.5,0,0,1,2.544,2.576H11.392A2.578,2.578,0,0,1,13.92-6.928ZM24.8,0H26V-5.424a2.2,2.2,0,0,0-2.464-2.5,3.833,3.833,0,0,0-2.752,1.312v-1.12h-1.2V0h1.2V-5.648a2.984,2.984,0,0,1,2.288-1.2c1.04,0,1.728.432,1.728,1.792Zm5.552.192a1.961,1.961,0,0,0,1.44-.5l-.352-.9a1.158,1.158,0,0,1-.816.32c-.528,0-.784-.416-.784-.992v-4.8h1.568V-7.728H29.84V-9.84h-1.2v2.112H27.36v1.056h1.28v5.056A1.581,1.581,0,0,0,30.352.192ZM42.064,0h1.2V-5.312c0-1.872-1.36-2.608-2.992-2.608a4.045,4.045,0,0,0-3.088,1.28l.56.832A3.07,3.07,0,0,1,40.112-6.88c1.12,0,1.952.592,1.952,1.632v1.392A3.231,3.231,0,0,0,39.5-4.912a2.531,2.531,0,0,0-2.7,2.544A2.573,2.573,0,0,0,39.5.192,3.343,3.343,0,0,0,42.064-.88Zm0-1.632a2.588,2.588,0,0,1-2.128.96,1.732,1.732,0,0,1-1.9-1.68,1.735,1.735,0,0,1,1.9-1.7,2.588,2.588,0,0,1,2.128.96ZM47.616.192a1.961,1.961,0,0,0,1.44-.5L48.7-1.2a1.158,1.158,0,0,1-.816.32c-.528,0-.784-.416-.784-.992v-4.8h1.568V-7.728H47.1V-9.84H45.9v2.112h-1.28v1.056H45.9v5.056A1.581,1.581,0,0,0,47.616.192ZM56.144,0h1.328V-10.672H56.3L53.632-7.92l.8.816,1.712-1.808Zm4.512,0h1.472L66.5-9.76v-.912h-7.28v1.184H64.96ZM67.92-6.96a.888.888,0,0,0,.88.88.888.888,0,0,0,.88-.88.888.888,0,0,0-.88-.88A.888.888,0,0,0,67.92-6.96Zm0,6.24a.888.888,0,0,0,.88.88.888.888,0,0,0,.88-.88.888.888,0,0,0-.88-.88A.888.888,0,0,0,67.92-.72Zm3.776-.8A4.357,4.357,0,0,0,75.456.192a3.5,3.5,0,0,0,3.792-3.52,3.269,3.269,0,0,0-3.392-3.408,3.609,3.609,0,0,0-2.5.96V-9.488h5.2v-1.184H72.032v5.76l.976.336a3.345,3.345,0,0,1,2.464-1.008,2.249,2.249,0,0,1,2.448,2.3A2.3,2.3,0,0,1,75.456-.992,3.512,3.512,0,0,1,72.512-2.4Zm8.848-.048A4.5,4.5,0,0,0,84.336.192c2.352,0,3.776-1.3,3.776-3.072A2.684,2.684,0,0,0,85.648-5.5a2.6,2.6,0,0,0,2.3-2.48c0-1.808-1.568-2.848-3.616-2.848a4.623,4.623,0,0,0-3.648,1.648l.736.832a3.616,3.616,0,0,1,2.816-1.3c1.3,0,2.384.64,2.384,1.824,0,1.232-1.136,1.76-2.48,1.76-.432,0-.928,0-1.1-.016v1.216c.16-.016.656-.016,1.1-.016,1.568,0,2.656.56,2.656,1.888,0,1.232-.944,2-2.5,2A3.706,3.706,0,0,1,81.328-2.4ZM97.7.192a3.8,3.8,0,0,0,3.824-4.064A3.791,3.791,0,0,0,97.7-7.92a3.791,3.791,0,0,0-3.824,4.048A3.8,3.8,0,0,0,97.7.192Zm0-1.072A2.7,2.7,0,0,1,95.12-3.872,2.7,2.7,0,0,1,97.7-6.848c1.648,0,2.56,1.408,2.56,2.976C100.256-2.288,99.344-.88,97.7-.88ZM108.688,0h1.2V-5.424a2.2,2.2,0,0,0-2.464-2.5,3.833,3.833,0,0,0-2.752,1.312v-1.12h-1.2V0h1.2V-5.648a2.984,2.984,0,0,1,2.288-1.2c1.04,0,1.728.432,1.728,1.792Zm9.376,0h1.328V-10.672h-1.168L115.552-7.92l.8.816,1.712-1.808Zm3.392-5.328c0,2.592,1.152,5.52,4.08,5.52,2.912,0,4.08-2.928,4.08-5.52,0-2.608-1.168-5.5-4.08-5.5C122.608-10.832,121.456-7.936,121.456-5.328Zm6.8,0c0,2.128-.688,4.336-2.72,4.336s-2.72-2.208-2.72-4.336.688-4.32,2.72-4.32S128.256-7.456,128.256-5.328ZM130.432.32h.944l3.792-11.312h-.944ZM138.016,0h1.328V-10.672h-1.168L135.5-7.92l.8.816,1.712-1.808Zm5.424,0h1.328V-10.672H143.6L140.928-7.92l.8.816,1.712-1.808Zm2.576.32h.944l3.792-11.312h-.944Zm5.6-.32h7.328V-1.184h-5.232C156.688-3.536,158.9-5.52,158.9-7.7c0-2.128-1.808-3.136-3.584-3.136a4.623,4.623,0,0,0-3.712,1.68l.816.848a3.568,3.568,0,0,1,2.9-1.344A2,2,0,0,1,157.536-7.7c0,1.84-2.08,3.616-5.92,6.64Zm9.36-5.328c0,2.592,1.152,5.52,4.08,5.52,2.912,0,4.08-2.928,4.08-5.52,0-2.608-1.168-5.5-4.08-5.5C162.128-10.832,160.976-7.936,160.976-5.328Zm6.8,0c0,2.128-.688,4.336-2.72,4.336s-2.72-2.208-2.72-4.336.688-4.32,2.72-4.32S167.776-7.456,167.776-5.328ZM172.8,0h1.328V-10.672H172.96L170.288-7.92l.8.816L172.8-8.912Zm3.408-2.7c0,1.824,1.712,2.9,3.824,2.9,2.1,0,3.824-1.088,3.824-2.9a3.166,3.166,0,0,0-2.544-2.8,2.82,2.82,0,0,0,2.384-2.56c0-1.92-1.9-2.768-3.664-2.768-1.776,0-3.648.848-3.648,2.768a2.8,2.8,0,0,0,2.368,2.56A3.166,3.166,0,0,0,176.208-2.7Zm6.144-5.184c0,1.3-1.664,1.728-2.32,1.84-.64-.112-2.32-.544-2.32-1.84,0-1.1,1.024-1.76,2.32-1.76C181.312-9.648,182.352-8.992,182.352-7.888Zm.16,5.04c0,1.152-1.168,1.856-2.48,1.856-1.328,0-2.5-.7-2.5-1.856,0-1.392,1.84-1.984,2.5-2.064C180.688-4.832,182.512-4.24,182.512-2.848Z" transform="translate(2056.467 2162)" fill="#a5b4cc"/>
    <path id="Path_1903" data-name="Path 1903" d="M1.184,0h1.6V-4.112h2.9a3.192,3.192,0,0,0,3.408-3.28,3.183,3.183,0,0,0-3.408-3.28h-4.5ZM7.44-7.392A1.832,1.832,0,0,1,5.472-5.52H2.784V-9.264H5.472A1.832,1.832,0,0,1,7.44-7.392Zm2.848,2.064A5.248,5.248,0,0,0,15.664.192a5.248,5.248,0,0,0,5.376-5.52,5.248,5.248,0,0,0-5.376-5.52A5.248,5.248,0,0,0,10.288-5.328Zm9.1,0c0,2.336-1.472,4.1-3.728,4.1-2.288,0-3.728-1.76-3.728-4.1,0-2.352,1.44-4.1,3.728-4.1C17.92-9.424,19.392-7.68,19.392-5.328ZM33.248,0H35.1L32.368-4.272a2.977,2.977,0,0,0,2.656-3.12,3.181,3.181,0,0,0-3.424-3.28H27.1V0h1.6V-4.112h2Zm.128-7.392A1.846,1.846,0,0,1,31.392-5.52H28.7V-9.264h2.688A1.846,1.846,0,0,1,33.376-7.392ZM36-3.872A3.865,3.865,0,0,0,40,.192,4.347,4.347,0,0,0,43.1-.96L42.432-1.9a3.285,3.285,0,0,1-2.288.912,2.534,2.534,0,0,1-2.624-2.4h6.112v-.352c0-2.368-1.44-4.176-3.76-4.176A3.886,3.886,0,0,0,36-3.872Zm3.872-2.864a2.286,2.286,0,0,1,2.352,2.3H37.5A2.367,2.367,0,0,1,39.872-6.736ZM44.96-3.872A3.858,3.858,0,0,0,48.9.192a3.376,3.376,0,0,0,2.9-1.36l-.96-.88a2.2,2.2,0,0,1-1.872.96,2.529,2.529,0,0,1-2.5-2.784,2.515,2.515,0,0,1,2.5-2.768,2.158,2.158,0,0,1,1.872.96l.96-.88a3.376,3.376,0,0,0-2.9-1.36A3.845,3.845,0,0,0,44.96-3.872Zm7.936,0a3.865,3.865,0,0,0,4,4.064A4.347,4.347,0,0,0,60-.96L59.328-1.9a3.285,3.285,0,0,1-2.288.912,2.534,2.534,0,0,1-2.624-2.4h6.112v-.352c0-2.368-1.44-4.176-3.76-4.176A3.886,3.886,0,0,0,52.9-3.872Zm3.872-2.864a2.286,2.286,0,0,1,2.352,2.3H54.4A2.367,2.367,0,0,1,56.768-6.736ZM63.04-9.024a.915.915,0,0,0,.928-.912.929.929,0,0,0-.928-.928.939.939,0,0,0-.928.928A.925.925,0,0,0,63.04-9.024ZM62.336,0h1.44V-7.728h-1.44Zm5.776,0h1.552l3.184-7.728H71.3L68.88-1.664,66.464-7.728H64.928Zm5.424-3.872a3.865,3.865,0,0,0,4,4.064A4.347,4.347,0,0,0,80.64-.96L79.968-1.9a3.286,3.286,0,0,1-2.288.912,2.534,2.534,0,0,1-2.624-2.4h6.112v-.352c0-2.368-1.44-4.176-3.76-4.176A3.886,3.886,0,0,0,73.536-3.872Zm3.872-2.864a2.286,2.286,0,0,1,2.352,2.3H75.04A2.367,2.367,0,0,1,77.408-6.736ZM88.48,0h1.44V-10.672H88.48v4.064A3.148,3.148,0,0,0,85.952-7.92c-2.016,0-3.456,1.584-3.456,4.064,0,2.528,1.44,4.048,3.456,4.048A3.2,3.2,0,0,0,88.48-1.1Zm0-2.208a2.657,2.657,0,0,1-2.144,1.12C84.9-1.088,84-2.256,84-3.856c0-1.616.9-2.784,2.336-2.784A2.67,2.67,0,0,1,88.48-5.5Z" transform="translate(1998 1969)" fill="#587da3"/>
    <path id="Path_1901" data-name="Path 1901" d="M.736-5.328A5.248,5.248,0,0,0,6.112.192a5.248,5.248,0,0,0,5.376-5.52,5.248,5.248,0,0,0-5.376-5.52A5.248,5.248,0,0,0,.736-5.328Zm9.1,0c0,2.336-1.472,4.1-3.728,4.1-2.288,0-3.728-1.76-3.728-4.1,0-2.352,1.44-4.1,3.728-4.1C8.368-9.424,9.84-7.68,9.84-5.328ZM13.392,0h1.44V-5.376A2.73,2.73,0,0,1,16.864-6.5a2.266,2.266,0,0,1,.5.048V-7.9a3.283,3.283,0,0,0-2.528,1.36V-7.728h-1.44ZM24.3,0h1.44V-10.672H24.3v4.064A3.148,3.148,0,0,0,21.776-7.92c-2.016,0-3.456,1.584-3.456,4.064,0,2.528,1.44,4.048,3.456,4.048A3.2,3.2,0,0,0,24.3-1.1Zm0-2.208a2.657,2.657,0,0,1-2.144,1.12c-1.44,0-2.336-1.168-2.336-2.768,0-1.616.9-2.784,2.336-2.784A2.67,2.67,0,0,1,24.3-5.5Zm3.264-1.664a3.865,3.865,0,0,0,4,4.064,4.347,4.347,0,0,0,3.1-1.152L34-1.9a3.285,3.285,0,0,1-2.288.912,2.534,2.534,0,0,1-2.624-2.4H35.2v-.352c0-2.368-1.44-4.176-3.76-4.176A3.886,3.886,0,0,0,27.568-3.872ZM31.44-6.736a2.286,2.286,0,0,1,2.352,2.3h-4.72A2.367,2.367,0,0,1,31.44-6.736ZM37.008,0h1.44V-5.376A2.73,2.73,0,0,1,40.48-6.5a2.266,2.266,0,0,1,.5.048V-7.9a3.283,3.283,0,0,0-2.528,1.36V-7.728h-1.44ZM54.192,0h1.76l-4.24-10.672h-2L45.472,0h1.76L48.1-2.208h5.232ZM50.7-9.28l2.16,5.648h-4.3ZM56.72-3.872A3.858,3.858,0,0,0,60.656.192a3.376,3.376,0,0,0,2.9-1.36l-.96-.88a2.2,2.2,0,0,1-1.872.96,2.529,2.529,0,0,1-2.5-2.784,2.515,2.515,0,0,1,2.5-2.768,2.158,2.158,0,0,1,1.872.96l.96-.88a3.376,3.376,0,0,0-2.9-1.36A3.845,3.845,0,0,0,56.72-3.872Zm7.936,0A3.858,3.858,0,0,0,68.592.192a3.376,3.376,0,0,0,2.9-1.36l-.96-.88a2.2,2.2,0,0,1-1.872.96,2.529,2.529,0,0,1-2.5-2.784,2.515,2.515,0,0,1,2.5-2.768,2.158,2.158,0,0,1,1.872.96l.96-.88a3.376,3.376,0,0,0-2.9-1.36A3.845,3.845,0,0,0,64.656-3.872Zm7.936,0a3.865,3.865,0,0,0,4,4.064A4.347,4.347,0,0,0,79.7-.96L79.024-1.9a3.286,3.286,0,0,1-2.288.912,2.534,2.534,0,0,1-2.624-2.4h6.112v-.352c0-2.368-1.44-4.176-3.76-4.176A3.886,3.886,0,0,0,72.592-3.872Zm3.872-2.864a2.286,2.286,0,0,1,2.352,2.3H74.1A2.367,2.367,0,0,1,76.464-6.736Zm7.008,9.68V-1.12A3.083,3.083,0,0,0,86,.192c2.016,0,3.44-1.536,3.44-4.064S88.016-7.92,86-7.92a3.149,3.149,0,0,0-2.528,1.3v-1.1h-1.44V2.944Zm4.464-6.816c0,1.616-.88,2.784-2.32,2.784a2.689,2.689,0,0,1-2.144-1.136V-5.5A2.647,2.647,0,0,1,85.616-6.64C87.056-6.64,87.936-5.472,87.936-3.872ZM93.392.192a2.051,2.051,0,0,0,1.5-.5l-.368-1.088a1.108,1.108,0,0,1-.784.3c-.5,0-.752-.4-.752-.944V-6.464H94.56V-7.728H92.992V-9.84h-1.44v2.112h-1.28v1.264h1.28v4.752A1.681,1.681,0,0,0,93.392.192ZM95.68-3.872a3.865,3.865,0,0,0,4,4.064,4.347,4.347,0,0,0,3.1-1.152l-.672-.944a3.285,3.285,0,0,1-2.288.912,2.534,2.534,0,0,1-2.624-2.4h6.112v-.352c0-2.368-1.44-4.176-3.76-4.176A3.886,3.886,0,0,0,95.68-3.872Zm3.872-2.864a2.286,2.286,0,0,1,2.352,2.3h-4.72A2.367,2.367,0,0,1,99.552-6.736ZM110.624,0h1.44V-10.672h-1.44v4.064A3.148,3.148,0,0,0,108.1-7.92c-2.016,0-3.456,1.584-3.456,4.064,0,2.528,1.44,4.048,3.456,4.048a3.2,3.2,0,0,0,2.528-1.3Zm0-2.208a2.657,2.657,0,0,1-2.144,1.12c-1.44,0-2.336-1.168-2.336-2.768,0-1.616.9-2.784,2.336-2.784A2.67,2.67,0,0,1,110.624-5.5Z" transform="translate(2204 1969)" fill="#587da3"/>
    <path id="Path_1900" data-name="Path 1900" d="M.736-5.328A5.248,5.248,0,0,0,6.112.192a5.248,5.248,0,0,0,5.376-5.52,5.248,5.248,0,0,0-5.376-5.52A5.248,5.248,0,0,0,.736-5.328Zm9.1,0c0,2.336-1.472,4.1-3.728,4.1-2.288,0-3.728-1.76-3.728-4.1,0-2.352,1.44-4.1,3.728-4.1C8.368-9.424,9.84-7.68,9.84-5.328ZM13.392,0h1.44V-5.376A2.73,2.73,0,0,1,16.864-6.5a2.266,2.266,0,0,1,.5.048V-7.9a3.283,3.283,0,0,0-2.528,1.36V-7.728h-1.44ZM24.3,0h1.44V-10.672H24.3v4.064A3.148,3.148,0,0,0,21.776-7.92c-2.016,0-3.456,1.584-3.456,4.064,0,2.528,1.44,4.048,3.456,4.048A3.2,3.2,0,0,0,24.3-1.1Zm0-2.208a2.657,2.657,0,0,1-2.144,1.12c-1.44,0-2.336-1.168-2.336-2.768,0-1.616.9-2.784,2.336-2.784A2.67,2.67,0,0,1,24.3-5.5Zm3.264-1.664a3.865,3.865,0,0,0,4,4.064,4.347,4.347,0,0,0,3.1-1.152L34-1.9a3.285,3.285,0,0,1-2.288.912,2.534,2.534,0,0,1-2.624-2.4H35.2v-.352c0-2.368-1.44-4.176-3.76-4.176A3.886,3.886,0,0,0,27.568-3.872ZM31.44-6.736a2.286,2.286,0,0,1,2.352,2.3h-4.72A2.367,2.367,0,0,1,31.44-6.736ZM37.008,0h1.44V-5.376A2.73,2.73,0,0,1,40.48-6.5a2.266,2.266,0,0,1,.5.048V-7.9a3.283,3.283,0,0,0-2.528,1.36V-7.728h-1.44ZM45.92-1.5a5.461,5.461,0,0,0,4.208,1.7c2.88,0,4.032-1.552,4.032-3.216,0-2.272-2.032-2.816-3.776-3.28-1.328-.336-2.48-.64-2.48-1.6,0-.9.816-1.5,2-1.5A4.163,4.163,0,0,1,52.992-8.16l.928-1.184a5.232,5.232,0,0,0-3.888-1.488c-2.224,0-3.776,1.28-3.776,3.04,0,2.176,1.984,2.672,3.7,3.12,1.36.352,2.576.672,2.576,1.792,0,.768-.608,1.648-2.336,1.648a4.5,4.5,0,0,1-3.36-1.5ZM61.2,0h1.44V-5.456A2.191,2.191,0,0,0,60.16-7.92a3.714,3.714,0,0,0-2.736,1.28v-4.032h-1.44V0h1.44V-5.52a2.761,2.761,0,0,1,2.128-1.12c.992,0,1.648.384,1.648,1.664Zm4.448-9.024a.915.915,0,0,0,.928-.912.929.929,0,0,0-.928-.928.939.939,0,0,0-.928.928A.925.925,0,0,0,65.648-9.024ZM64.944,0h1.44V-7.728h-1.44Zm5.168,2.944V-1.12A3.083,3.083,0,0,0,72.64.192c2.016,0,3.44-1.536,3.44-4.064S74.656-7.92,72.64-7.92a3.149,3.149,0,0,0-2.528,1.3v-1.1h-1.44V2.944Zm4.464-6.816c0,1.616-.88,2.784-2.32,2.784a2.689,2.689,0,0,1-2.144-1.136V-5.5A2.647,2.647,0,0,1,72.256-6.64C73.7-6.64,74.576-5.472,74.576-3.872Zm4.768,6.816V-1.12A3.083,3.083,0,0,0,81.872.192c2.016,0,3.44-1.536,3.44-4.064S83.888-7.92,81.872-7.92a3.149,3.149,0,0,0-2.528,1.3v-1.1H77.9V2.944Zm4.464-6.816c0,1.616-.88,2.784-2.32,2.784a2.689,2.689,0,0,1-2.144-1.136V-5.5A2.647,2.647,0,0,1,81.488-6.64C82.928-6.64,83.808-5.472,83.808-3.872Zm2.848,0a3.865,3.865,0,0,0,4,4.064A4.347,4.347,0,0,0,93.76-.96L93.088-1.9A3.285,3.285,0,0,1,90.8-.992a2.534,2.534,0,0,1-2.624-2.4h6.112v-.352c0-2.368-1.44-4.176-3.76-4.176A3.886,3.886,0,0,0,86.656-3.872Zm3.872-2.864a2.286,2.286,0,0,1,2.352,2.3H88.16A2.367,2.367,0,0,1,90.528-6.736ZM101.6,0h1.44V-10.672H101.6v4.064A3.148,3.148,0,0,0,99.072-7.92c-2.016,0-3.456,1.584-3.456,4.064,0,2.528,1.44,4.048,3.456,4.048A3.2,3.2,0,0,0,101.6-1.1Zm0-2.208a2.657,2.657,0,0,1-2.144,1.12c-1.44,0-2.336-1.168-2.336-2.768,0-1.616.9-2.784,2.336-2.784A2.67,2.67,0,0,1,101.6-5.5Z" transform="translate(2410 1969)" fill="#587da3"/>
    <path id="Path_1897" data-name="Path 1897" d="M1.184,0h1.6V-4.112h2.9a3.192,3.192,0,0,0,3.408-3.28,3.183,3.183,0,0,0-3.408-3.28h-4.5ZM7.44-7.392A1.832,1.832,0,0,1,5.472-5.52H2.784V-9.264H5.472A1.832,1.832,0,0,1,7.44-7.392ZM15.152,0h1.44V-5.216c0-1.968-1.424-2.7-3.1-2.7A4.344,4.344,0,0,0,10.32-6.656l.624.992a3.162,3.162,0,0,1,2.32-1.024c1.1,0,1.888.576,1.888,1.536v1.28A3.223,3.223,0,0,0,12.624-4.9,2.494,2.494,0,0,0,9.936-2.368,2.568,2.568,0,0,0,12.624.192a3.313,3.313,0,0,0,2.528-1.04Zm0-1.7a2.448,2.448,0,0,1-1.984.88,1.6,1.6,0,0,1-1.776-1.536,1.6,1.6,0,0,1,1.776-1.536,2.448,2.448,0,0,1,1.984.88Zm3.584,3.424-.224,1.3a4.162,4.162,0,0,0,.9.112,2.442,2.442,0,0,0,2.464-1.664l3.808-9.2H24.128L21.712-1.664,19.3-7.728H17.76L20.944.08,20.5,1.1a1.068,1.068,0,0,1-1.12.752A1.756,1.756,0,0,1,18.736,1.728ZM36.24,0h1.44V-5.584c0-1.552-.768-2.336-2.192-2.336A3.242,3.242,0,0,0,32.88-6.48a2,2,0,0,0-2.1-1.44,3.345,3.345,0,0,0-2.5,1.28V-7.728h-1.44V0h1.44V-5.52a2.525,2.525,0,0,1,1.888-1.12c.976,0,1.36.592,1.36,1.488V0h1.44V-5.536a2.488,2.488,0,0,1,1.92-1.1c.944,0,1.344.592,1.344,1.488Zm3.248-3.872a3.865,3.865,0,0,0,4,4.064,4.347,4.347,0,0,0,3.1-1.152L45.92-1.9a3.285,3.285,0,0,1-2.288.912,2.534,2.534,0,0,1-2.624-2.4H47.12v-.352c0-2.368-1.44-4.176-3.76-4.176A3.886,3.886,0,0,0,39.488-3.872ZM43.36-6.736a2.286,2.286,0,0,1,2.352,2.3h-4.72A2.367,2.367,0,0,1,43.36-6.736ZM54.144,0h1.44V-5.424a2.221,2.221,0,0,0-2.48-2.5,3.685,3.685,0,0,0-2.736,1.28V-7.728h-1.44V0h1.44V-5.52A2.761,2.761,0,0,1,52.5-6.64c.992,0,1.648.416,1.648,1.7ZM60,.192a2.051,2.051,0,0,0,1.5-.5l-.368-1.088a1.108,1.108,0,0,1-.784.3c-.5,0-.752-.4-.752-.944V-6.464h1.568V-7.728H59.6V-9.84H58.16v2.112H56.88v1.264h1.28v4.752A1.681,1.681,0,0,0,60,.192ZM66.928,0h3.808a5.189,5.189,0,0,0,5.536-5.328,5.211,5.211,0,0,0-5.536-5.344H66.928Zm1.6-1.408V-9.264h2.208a3.689,3.689,0,0,1,3.888,3.936,3.719,3.719,0,0,1-3.888,3.92ZM83.392,0h1.44V-7.728h-1.44v5.552a2.793,2.793,0,0,1-2.144,1.088c-.992,0-1.632-.384-1.632-1.664V-7.728h-1.44v5.456A2.18,2.18,0,0,0,80.64.192a3.818,3.818,0,0,0,2.752-1.248ZM86.64-3.872a3.865,3.865,0,0,0,4,4.064,4.347,4.347,0,0,0,3.1-1.152L93.072-1.9a3.286,3.286,0,0,1-2.288.912,2.534,2.534,0,0,1-2.624-2.4h6.112v-.352c0-2.368-1.44-4.176-3.76-4.176A3.886,3.886,0,0,0,86.64-3.872Zm3.872-2.864a2.286,2.286,0,0,1,2.352,2.3h-4.72A2.367,2.367,0,0,1,90.512-6.736Z" transform="translate(2616 1969)" fill="#587da3"/>
    <path id="Path_1904" data-name="Path 1904" d="M2.848,0H4.176V-10.672H3.008L.336-7.92l.8.816L2.848-8.912ZM6.24-5.328c0,2.592,1.152,5.52,4.08,5.52,2.912,0,4.08-2.928,4.08-5.52,0-2.608-1.168-5.5-4.08-5.5C7.392-10.832,6.24-7.936,6.24-5.328Zm6.8,0c0,2.128-.688,4.336-2.72,4.336S7.6-3.2,7.6-5.328s.688-4.32,2.72-4.32S13.04-7.456,13.04-5.328ZM15.216.32h.944l3.792-11.312h-.944ZM22.8,0h1.328V-10.672H22.96L20.288-7.92l.8.816L22.8-8.912Zm5.424,0h1.328V-10.672H28.384L25.712-7.92l.8.816,1.712-1.808ZM30.8.32h.944l3.792-11.312h-.944ZM36.4,0h7.328V-1.184H38.5C41.472-3.536,43.68-5.52,43.68-7.7c0-2.128-1.808-3.136-3.584-3.136a4.623,4.623,0,0,0-3.712,1.68L37.2-8.3a3.568,3.568,0,0,1,2.9-1.344A2,2,0,0,1,42.32-7.7c0,1.84-2.08,3.616-5.92,6.64Zm9.36-5.328c0,2.592,1.152,5.52,4.08,5.52,2.912,0,4.08-2.928,4.08-5.52,0-2.608-1.168-5.5-4.08-5.5C46.912-10.832,45.76-7.936,45.76-5.328Zm6.8,0c0,2.128-.688,4.336-2.72,4.336S47.12-3.2,47.12-5.328s.688-4.32,2.72-4.32S52.56-7.456,52.56-5.328ZM57.584,0h1.328V-10.672H57.744L55.072-7.92l.8.816,1.712-1.808Zm3.408-2.7c0,1.824,1.712,2.9,3.824,2.9,2.1,0,3.824-1.088,3.824-2.9A3.166,3.166,0,0,0,66.1-5.5a2.82,2.82,0,0,0,2.384-2.56c0-1.92-1.9-2.768-3.664-2.768-1.776,0-3.648.848-3.648,2.768A2.8,2.8,0,0,0,63.536-5.5,3.166,3.166,0,0,0,60.992-2.7Zm6.144-5.184c0,1.3-1.664,1.728-2.32,1.84-.64-.112-2.32-.544-2.32-1.84,0-1.1,1.024-1.76,2.32-1.76C66.1-9.648,67.136-8.992,67.136-7.888Zm.16,5.04c0,1.152-1.168,1.856-2.48,1.856-1.328,0-2.5-.7-2.5-1.856,0-1.392,1.84-1.984,2.5-2.064C65.472-4.832,67.3-4.24,67.3-2.848Z" transform="translate(1998 1989)" fill="#95b0cb"/>
    <path id="Path_1902" data-name="Path 1902" d="M2.848,0H4.176V-10.672H3.008L.336-7.92l.8.816L2.848-8.912ZM6.24-5.328c0,2.592,1.152,5.52,4.08,5.52,2.912,0,4.08-2.928,4.08-5.52,0-2.608-1.168-5.5-4.08-5.5C7.392-10.832,6.24-7.936,6.24-5.328Zm6.8,0c0,2.128-.688,4.336-2.72,4.336S7.6-3.2,7.6-5.328s.688-4.32,2.72-4.32S13.04-7.456,13.04-5.328ZM15.216.32h.944l3.792-11.312h-.944ZM22.8,0h1.328V-10.672H22.96L20.288-7.92l.8.816L22.8-8.912Zm5.424,0h1.328V-10.672H28.384L25.712-7.92l.8.816,1.712-1.808ZM30.8.32h.944l3.792-11.312h-.944ZM36.4,0h7.328V-1.184H38.5C41.472-3.536,43.68-5.52,43.68-7.7c0-2.128-1.808-3.136-3.584-3.136a4.623,4.623,0,0,0-3.712,1.68L37.2-8.3a3.568,3.568,0,0,1,2.9-1.344A2,2,0,0,1,42.32-7.7c0,1.84-2.08,3.616-5.92,6.64Zm9.36-5.328c0,2.592,1.152,5.52,4.08,5.52,2.912,0,4.08-2.928,4.08-5.52,0-2.608-1.168-5.5-4.08-5.5C46.912-10.832,45.76-7.936,45.76-5.328Zm6.8,0c0,2.128-.688,4.336-2.72,4.336S47.12-3.2,47.12-5.328s.688-4.32,2.72-4.32S52.56-7.456,52.56-5.328ZM57.584,0h1.328V-10.672H57.744L55.072-7.92l.8.816,1.712-1.808Zm3.408-2.7c0,1.824,1.712,2.9,3.824,2.9,2.1,0,3.824-1.088,3.824-2.9A3.166,3.166,0,0,0,66.1-5.5a2.82,2.82,0,0,0,2.384-2.56c0-1.92-1.9-2.768-3.664-2.768-1.776,0-3.648.848-3.648,2.768A2.8,2.8,0,0,0,63.536-5.5,3.166,3.166,0,0,0,60.992-2.7Zm6.144-5.184c0,1.3-1.664,1.728-2.32,1.84-.64-.112-2.32-.544-2.32-1.84,0-1.1,1.024-1.76,2.32-1.76C66.1-9.648,67.136-8.992,67.136-7.888Zm.16,5.04c0,1.152-1.168,1.856-2.48,1.856-1.328,0-2.5-.7-2.5-1.856,0-1.392,1.84-1.984,2.5-2.064C65.472-4.832,67.3-4.24,67.3-2.848Z" transform="translate(2204 1989)" fill="#95b0cb"/>
    <path id="Path_1899" data-name="Path 1899" d="M2.848,0H4.176V-10.672H3.008L.336-7.92l.8.816L2.848-8.912ZM8.272,0H9.6V-10.672H8.432L5.76-7.92l.8.816L8.272-8.912Zm2.576.32h.944l3.792-11.312H14.64ZM18.432,0H19.76V-10.672H18.592L15.92-7.92l.8.816,1.712-1.808Zm5.424,0h1.328V-10.672H24.016L21.344-7.92l.8.816,1.712-1.808Zm2.576.32h.944l3.792-11.312h-.944Zm5.6-.32H39.36V-1.184H34.128C37.1-3.536,39.312-5.52,39.312-7.7c0-2.128-1.808-3.136-3.584-3.136a4.623,4.623,0,0,0-3.712,1.68l.816.848a3.568,3.568,0,0,1,2.9-1.344A2,2,0,0,1,37.952-7.7c0,1.84-2.08,3.616-5.92,6.64Zm9.36-5.328c0,2.592,1.152,5.52,4.08,5.52,2.912,0,4.08-2.928,4.08-5.52,0-2.608-1.168-5.5-4.08-5.5C42.544-10.832,41.392-7.936,41.392-5.328Zm6.8,0c0,2.128-.688,4.336-2.72,4.336s-2.72-2.208-2.72-4.336.688-4.32,2.72-4.32S48.192-7.456,48.192-5.328ZM53.216,0h1.328V-10.672H53.376L50.7-7.92l.8.816,1.712-1.808Zm3.408-2.7c0,1.824,1.712,2.9,3.824,2.9,2.1,0,3.824-1.088,3.824-2.9a3.166,3.166,0,0,0-2.544-2.8,2.82,2.82,0,0,0,2.384-2.56c0-1.92-1.9-2.768-3.664-2.768-1.776,0-3.648.848-3.648,2.768A2.8,2.8,0,0,0,59.168-5.5,3.166,3.166,0,0,0,56.624-2.7Zm6.144-5.184c0,1.3-1.664,1.728-2.32,1.84-.64-.112-2.32-.544-2.32-1.84,0-1.1,1.024-1.76,2.32-1.76C61.728-9.648,62.768-8.992,62.768-7.888Zm.16,5.04c0,1.152-1.168,1.856-2.48,1.856-1.328,0-2.5-.7-2.5-1.856,0-1.392,1.84-1.984,2.5-2.064C61.1-4.832,62.928-4.24,62.928-2.848Z" transform="translate(2410 1989)" fill="#95b0cb"/>
    <path id="Path_1898" data-name="Path 1898" d="M2.848,0H4.176V-10.672H3.008L.336-7.92l.8.816L2.848-8.912ZM8.272,0H9.6V-10.672H8.432L5.76-7.92l.8.816L8.272-8.912Zm2.576.32h.944l3.792-11.312H14.64ZM18.432,0H19.76V-10.672H18.592L15.92-7.92l.8.816,1.712-1.808Zm3.44,0H29.2V-1.184H23.968C26.944-3.536,29.152-5.52,29.152-7.7c0-2.128-1.808-3.136-3.584-3.136a4.623,4.623,0,0,0-3.712,1.68l.816.848a3.568,3.568,0,0,1,2.9-1.344A2,2,0,0,1,27.792-7.7c0,1.84-2.08,3.616-5.92,6.64Zm8.544.32h.944l3.792-11.312h-.944Zm5.6-.32h7.328V-1.184H38.112C41.088-3.536,43.3-5.52,43.3-7.7c0-2.128-1.808-3.136-3.584-3.136A4.623,4.623,0,0,0,36-9.152l.816.848a3.568,3.568,0,0,1,2.9-1.344A2,2,0,0,1,41.936-7.7c0,1.84-2.08,3.616-5.92,6.64Zm9.36-5.328c0,2.592,1.152,5.52,4.08,5.52,2.912,0,4.08-2.928,4.08-5.52,0-2.608-1.168-5.5-4.08-5.5C46.528-10.832,45.376-7.936,45.376-5.328Zm6.8,0c0,2.128-.688,4.336-2.72,4.336s-2.72-2.208-2.72-4.336.688-4.32,2.72-4.32S52.176-7.456,52.176-5.328ZM57.2,0h1.328V-10.672H57.36L54.688-7.92l.8.816L57.2-8.912Zm3.408-2.7c0,1.824,1.712,2.9,3.824,2.9,2.1,0,3.824-1.088,3.824-2.9a3.166,3.166,0,0,0-2.544-2.8A2.82,2.82,0,0,0,68.1-8.064c0-1.92-1.9-2.768-3.664-2.768-1.776,0-3.648.848-3.648,2.768A2.8,2.8,0,0,0,63.152-5.5,3.166,3.166,0,0,0,60.608-2.7Zm6.144-5.184c0,1.3-1.664,1.728-2.32,1.84-.64-.112-2.32-.544-2.32-1.84,0-1.1,1.024-1.76,2.32-1.76C65.712-9.648,66.752-8.992,66.752-7.888Zm.16,5.04c0,1.152-1.168,1.856-2.48,1.856-1.328,0-2.5-.7-2.5-1.856,0-1.392,1.84-1.984,2.5-2.064C65.088-4.832,66.912-4.24,66.912-2.848Z" transform="translate(2616 1989)" fill="#95b0cb"/>
    <path id="Rectangle_3221" data-name="Rectangle 3221" d="M0,0H25.522a12,12,0,0,1,12,12V44a0,0,0,0,1,0,0H0a0,0,0,0,1,0,0V0A0,0,0,0,1,0,0Z" transform="translate(1998 2223)" fill="#d9e8f8"/>
    <path id="Rectangle_3222" data-name="Rectangle 3222" d="M0,0H25.522a12,12,0,0,1,12,12V44a0,0,0,0,1,0,0H0a0,0,0,0,1,0,0V0A0,0,0,0,1,0,0Z" transform="translate(1998 2324)" fill="#8fe2de" opacity="0.5"/>
    <path id="Path_1910" data-name="Path 1910" d="M1.56,0H3.22V-13.34H1.56ZM12.8,0h1.5V-6.78c0-2.1-1.06-3.12-3.08-3.12A4.792,4.792,0,0,0,7.78-8.26v-1.4H6.28V0h1.5V-7.06a3.73,3.73,0,0,1,2.86-1.5c1.3,0,2.16.54,2.16,2.24Zm7.08,0h1.64l4.02-9.66H23.9L20.7-1.74,17.48-9.66H15.86ZM31.32.24A4.756,4.756,0,0,0,36.1-4.84,4.739,4.739,0,0,0,31.32-9.9a4.739,4.739,0,0,0-4.78,5.06A4.756,4.756,0,0,0,31.32.24Zm0-1.34c-2.06,0-3.22-1.76-3.22-3.74,0-1.96,1.16-3.72,3.22-3.72s3.2,1.76,3.2,3.72C34.52-2.86,33.38-1.1,31.32-1.1Zm7.96-10.18A1.024,1.024,0,0,0,40.3-12.3a1.007,1.007,0,0,0-1.02-1,1,1,0,0,0-1,1A1.02,1.02,0,0,0,39.28-11.28ZM38.54,0h1.5V-9.66h-1.5Zm3.94-4.84A4.778,4.778,0,0,0,47.3.24a4.135,4.135,0,0,0,3.54-1.68l-1-.92A2.913,2.913,0,0,1,47.38-1.1c-2.06,0-3.34-1.6-3.34-3.74s1.28-3.72,3.34-3.72A2.864,2.864,0,0,1,49.84-7.3l1-.92A4.135,4.135,0,0,0,47.3-9.9,4.772,4.772,0,0,0,42.48-4.84Zm9.9,0A4.79,4.79,0,0,0,57.3.24a5.248,5.248,0,0,0,3.84-1.48l-.72-.98A4.222,4.222,0,0,1,57.44-1a3.4,3.4,0,0,1-3.48-3.34h7.82v-.38c0-2.9-1.72-5.18-4.64-5.18A4.831,4.831,0,0,0,52.38-4.84Zm4.74-3.82A3.131,3.131,0,0,1,60.3-5.44H53.96A3.223,3.223,0,0,1,57.12-8.66ZM68.46-4.18h4.8V-5.5h-4.8ZM80.58,0h1.66V-13.34H80.58ZM94.8,0h1.6V-13.34H94.74V-2.8L87.06-13.34h-1.7V0h1.66V-10.76Zm7.94,0h1.22l1.2-3.62h2.26l.32-1.06h-2.22l1.34-3.98h2.18l.3-1.04H107.2l1.22-3.64H107.2L106-9.7h-2.2l1.2-3.64h-1.24l-1.2,3.64h-2.2l-.32,1.04h2.16l-1.32,3.98H98.74L98.4-3.62h2.12L99.3,0h1.24l1.2-3.62h2.22Zm2.88-8.66L104.3-4.68h-2.2l1.32-3.98ZM116.74,0h1.66V-3.38h1.88V-4.84H118.4v-8.5h-2.28L110.4-4.76v1.38h6.34Zm0-11.8v6.96h-4.68ZM122,0h9.16V-1.48h-6.54c3.72-2.94,6.48-5.42,6.48-8.14,0-2.66-2.26-3.92-4.48-3.92a5.778,5.778,0,0,0-4.64,2.1L123-10.38a4.46,4.46,0,0,1,3.62-1.68,2.494,2.494,0,0,1,2.78,2.44c0,2.3-2.6,4.52-7.4,8.3Zm11.26-1.96A5.626,5.626,0,0,0,138,.24c2.94,0,4.72-1.62,4.72-3.84a3.355,3.355,0,0,0-3.08-3.28,3.249,3.249,0,0,0,2.88-3.1c0-2.26-1.96-3.56-4.52-3.56a5.779,5.779,0,0,0-4.56,2.06l.92,1.04a4.519,4.519,0,0,1,3.52-1.62c1.62,0,2.98.8,2.98,2.28,0,1.54-1.42,2.2-3.1,2.2-.54,0-1.16,0-1.38-.02v1.52c.2-.02.82-.02,1.38-.02,1.96,0,3.32.7,3.32,2.36,0,1.54-1.18,2.5-3.12,2.5A4.633,4.633,0,0,1,134.24-3ZM146.24,0h1.84l5.46-12.2v-1.14h-9.1v1.48h7.18Z" transform="translate(2056.467 2241)" fill="#104e8d"/>
    <path id="Path_1913" data-name="Path 1913" d="M7.82.24A6.066,6.066,0,0,0,12.96-2.4l-1.42-.78A4.477,4.477,0,0,1,7.82-1.24,5.123,5.123,0,0,1,2.74-6.66a5.112,5.112,0,0,1,5.08-5.42,4.528,4.528,0,0,1,3.72,1.94l1.4-.78a6,6,0,0,0-5.12-2.64,6.659,6.659,0,0,0-6.8,6.9A6.659,6.659,0,0,0,7.82.24ZM15.02,0h1.5V-6.84a3.534,3.534,0,0,1,2.62-1.54,2.644,2.644,0,0,1,.6.06V-9.86A4.106,4.106,0,0,0,16.52-8.1V-9.66h-1.5Zm6.04-4.84A4.79,4.79,0,0,0,25.98.24a5.248,5.248,0,0,0,3.84-1.48l-.72-.98A4.222,4.222,0,0,1,26.12-1a3.4,3.4,0,0,1-3.48-3.34h7.82v-.38c0-2.9-1.72-5.18-4.64-5.18A4.831,4.831,0,0,0,21.06-4.84ZM25.8-8.66a3.131,3.131,0,0,1,3.18,3.22H22.64A3.223,3.223,0,0,1,25.8-8.66ZM39.88,0h1.5V-13.34h-1.5V-8.2a4.039,4.039,0,0,0-3.26-1.7c-2.54,0-4.3,2-4.3,5.08,0,3.14,1.78,5.06,4.3,5.06a4.067,4.067,0,0,0,3.26-1.68Zm0-2.62a3.593,3.593,0,0,1-2.9,1.52c-1.94,0-3.1-1.58-3.1-3.72s1.16-3.74,3.1-3.74A3.626,3.626,0,0,1,39.88-7Zm5.24-8.66a1.024,1.024,0,0,0,1.02-1.02,1.007,1.007,0,0,0-1.02-1,1,1,0,0,0-1,1A1.02,1.02,0,0,0,45.12-11.28ZM44.38,0h1.5V-9.66h-1.5Zm6.94.24a2.452,2.452,0,0,0,1.8-.62L52.68-1.5a1.447,1.447,0,0,1-1.02.4c-.66,0-.98-.52-.98-1.24v-6h1.96V-9.66H50.68V-12.3h-1.5v2.64h-1.6v1.32h1.6v6.32A1.976,1.976,0,0,0,51.32.24ZM69.42,0h1.6V-13.34H69.36V-2.8L61.68-13.34h-1.7V0h1.66V-10.76ZM78.3.24a4.756,4.756,0,0,0,4.78-5.08A4.739,4.739,0,0,0,78.3-9.9a4.739,4.739,0,0,0-4.78,5.06A4.756,4.756,0,0,0,78.3.24Zm0-1.34c-2.06,0-3.22-1.76-3.22-3.74,0-1.96,1.16-3.72,3.22-3.72s3.2,1.76,3.2,3.72C81.5-2.86,80.36-1.1,78.3-1.1ZM87.96.24a2.452,2.452,0,0,0,1.8-.62L89.32-1.5a1.447,1.447,0,0,1-1.02.4c-.66,0-.98-.52-.98-1.24v-6h1.96V-9.66H87.32V-12.3h-1.5v2.64h-1.6v1.32h1.6v6.32A1.976,1.976,0,0,0,87.96.24Zm2.88-5.08A4.79,4.79,0,0,0,95.76.24,5.248,5.248,0,0,0,99.6-1.24l-.72-.98A4.222,4.222,0,0,1,95.9-1a3.4,3.4,0,0,1-3.48-3.34h7.82v-.38c0-2.9-1.72-5.18-4.64-5.18A4.831,4.831,0,0,0,90.84-4.84Zm4.74-3.82a3.131,3.131,0,0,1,3.18,3.22H92.42A3.223,3.223,0,0,1,95.58-8.66Zm11.34,4.48h4.8V-5.5h-4.8ZM125.3.24a6.066,6.066,0,0,0,5.14-2.64l-1.42-.78a4.477,4.477,0,0,1-3.72,1.94,5.123,5.123,0,0,1-5.08-5.42,5.112,5.112,0,0,1,5.08-5.42,4.528,4.528,0,0,1,3.72,1.94l1.4-.78a6,6,0,0,0-5.12-2.64,6.659,6.659,0,0,0-6.8,6.9A6.659,6.659,0,0,0,125.3.24ZM142,0h1.6V-13.34h-1.66V-2.8l-7.68-10.54h-1.7V0h1.66V-10.76Zm7.94,0h1.22l1.2-3.62h2.26l.32-1.06h-2.22l1.34-3.98h2.18l.3-1.04H154.4l1.22-3.64H154.4L153.2-9.7H151l1.2-3.64h-1.24l-1.2,3.64h-2.2l-.32,1.04h2.16l-1.32,3.98h-2.14l-.34,1.06h2.12L146.5,0h1.24l1.2-3.62h2.22Zm2.88-8.66L151.5-4.68h-2.2l1.32-3.98ZM163.94,0h1.66V-3.38h1.88V-4.84H165.6v-8.5h-2.28L157.6-4.76v1.38h6.34Zm0-11.8v6.96h-4.68ZM169.2,0h9.16V-1.48h-6.54c3.72-2.94,6.48-5.42,6.48-8.14,0-2.66-2.26-3.92-4.48-3.92a5.778,5.778,0,0,0-4.64,2.1l1.02,1.06a4.46,4.46,0,0,1,3.62-1.68,2.494,2.494,0,0,1,2.78,2.44c0,2.3-2.6,4.52-7.4,8.3Zm11.26-1.96A5.626,5.626,0,0,0,185.2.24c2.94,0,4.72-1.62,4.72-3.84a3.355,3.355,0,0,0-3.08-3.28,3.249,3.249,0,0,0,2.88-3.1c0-2.26-1.96-3.56-4.52-3.56a5.779,5.779,0,0,0-4.56,2.06l.92,1.04a4.519,4.519,0,0,1,3.52-1.62c1.62,0,2.98.8,2.98,2.28,0,1.54-1.42,2.2-3.1,2.2-.54,0-1.16,0-1.38-.02v1.52c.2-.02.82-.02,1.38-.02,1.96,0,3.32.7,3.32,2.36,0,1.54-1.18,2.5-3.12,2.5A4.633,4.633,0,0,1,181.44-3ZM193.44,0h1.84l5.46-12.2v-1.14h-9.1v1.48h7.18Z" transform="translate(2056.467 2342)" fill="#104e8d"/>
    <path id="Path_1911" data-name="Path 1911" d="M7.424,0H8.992L6.112-4.352a2.949,2.949,0,0,0,2.768-3.1,3.108,3.108,0,0,0-3.344-3.216H1.248V0H2.576V-4.24H4.7ZM7.5-7.456A2,2,0,0,1,5.376-5.408h-2.8v-4.08h2.8A1.984,1.984,0,0,1,7.5-7.456ZM10-3.872A3.832,3.832,0,0,0,13.936.192,4.2,4.2,0,0,0,17.008-.992l-.576-.784A3.378,3.378,0,0,1,14.048-.8a2.723,2.723,0,0,1-2.784-2.672H17.52v-.3c0-2.32-1.376-4.144-3.712-4.144A3.864,3.864,0,0,0,10-3.872Zm3.792-3.056a2.5,2.5,0,0,1,2.544,2.576H11.264A2.578,2.578,0,0,1,13.792-6.928Zm5.216,3.056A3.822,3.822,0,0,0,22.864.192,3.308,3.308,0,0,0,25.7-1.152l-.8-.736A2.33,2.33,0,0,1,22.928-.88a2.706,2.706,0,0,1-2.672-2.992,2.693,2.693,0,0,1,2.672-2.976A2.292,2.292,0,0,1,24.9-5.84l.8-.736A3.308,3.308,0,0,0,22.864-7.92,3.818,3.818,0,0,0,19.008-3.872Zm7.92,0A3.832,3.832,0,0,0,30.864.192,4.2,4.2,0,0,0,33.936-.992l-.576-.784A3.378,3.378,0,0,1,30.976-.8a2.723,2.723,0,0,1-2.784-2.672h6.256v-.3c0-2.32-1.376-4.144-3.712-4.144A3.864,3.864,0,0,0,26.928-3.872ZM30.72-6.928a2.5,2.5,0,0,1,2.544,2.576H28.192A2.578,2.578,0,0,1,30.72-6.928Zm6.256-2.1a.819.819,0,0,0,.816-.816.806.806,0,0,0-.816-.8.8.8,0,0,0-.8.8A.816.816,0,0,0,36.976-9.024ZM36.384,0h1.2V-7.728h-1.2Zm5.664,0H43.36l3.216-7.728H45.264L42.7-1.392,40.128-7.728h-1.3Zm5.328-3.872A3.832,3.832,0,0,0,51.312.192,4.2,4.2,0,0,0,54.384-.992l-.576-.784A3.378,3.378,0,0,1,51.424-.8,2.723,2.723,0,0,1,48.64-3.472H54.9v-.3c0-2.32-1.376-4.144-3.712-4.144A3.864,3.864,0,0,0,47.376-3.872Zm3.792-3.056a2.5,2.5,0,0,1,2.544,2.576H48.64A2.578,2.578,0,0,1,51.168-6.928ZM62.432,0h1.2V-10.672h-1.2V-6.56a3.231,3.231,0,0,0-2.608-1.36c-2.032,0-3.44,1.6-3.44,4.064,0,2.512,1.424,4.048,3.44,4.048a3.254,3.254,0,0,0,2.608-1.344Zm0-2.1A2.874,2.874,0,0,1,60.112-.88c-1.552,0-2.48-1.264-2.48-2.976s.928-2.992,2.48-2.992A2.9,2.9,0,0,1,62.432-5.6ZM74.992,0h1.2V-5.312c0-1.872-1.36-2.608-2.992-2.608a4.045,4.045,0,0,0-3.088,1.28l.56.832A3.07,3.07,0,0,1,73.04-6.88c1.12,0,1.952.592,1.952,1.632v1.392a3.231,3.231,0,0,0-2.56-1.056,2.531,2.531,0,0,0-2.7,2.544,2.573,2.573,0,0,0,2.7,2.56A3.343,3.343,0,0,0,74.992-.88Zm0-1.632a2.588,2.588,0,0,1-2.128.96,1.732,1.732,0,0,1-1.9-1.68,1.735,1.735,0,0,1,1.9-1.7,2.588,2.588,0,0,1,2.128.96ZM80.544.192a1.961,1.961,0,0,0,1.44-.5l-.352-.9a1.158,1.158,0,0,1-.816.32c-.528,0-.784-.416-.784-.992v-4.8H81.6V-7.728H80.032V-9.84h-1.2v2.112h-1.28v1.056h1.28v5.056A1.581,1.581,0,0,0,80.544.192ZM89.072,0H90.4V-10.672H89.232L86.56-7.92l.8.816,1.712-1.808Zm8.16,0H98.56V-2.7h1.5V-3.872h-1.5v-6.8H96.736L92.16-3.808v1.1h5.072Zm0-9.44v5.568H93.488Zm4.3,2.48a.888.888,0,0,0,.88.88.888.888,0,0,0,.88-.88.888.888,0,0,0-.88-.88A.888.888,0,0,0,101.536-6.96Zm0,6.24a.888.888,0,0,0,.88.88.888.888,0,0,0,.88-.88.888.888,0,0,0-.88-.88A.888.888,0,0,0,101.536-.72Zm3.776-.8a4.357,4.357,0,0,0,3.76,1.712,3.5,3.5,0,0,0,3.792-3.52,3.269,3.269,0,0,0-3.392-3.408,3.609,3.609,0,0,0-2.5.96V-9.488h5.2v-1.184h-6.528v5.76l.976.336a3.345,3.345,0,0,1,2.464-1.008,2.249,2.249,0,0,1,2.448,2.3,2.3,2.3,0,0,1-2.464,2.288A3.512,3.512,0,0,1,106.128-2.4Zm8.848-.048a4.5,4.5,0,0,0,3.792,1.76c2.352,0,3.776-1.3,3.776-3.072A2.684,2.684,0,0,0,119.264-5.5a2.6,2.6,0,0,0,2.3-2.48c0-1.808-1.568-2.848-3.616-2.848A4.623,4.623,0,0,0,114.3-9.184l.736.832a3.616,3.616,0,0,1,2.816-1.3c1.3,0,2.384.64,2.384,1.824,0,1.232-1.136,1.76-2.48,1.76-.432,0-.928,0-1.1-.016v1.216c.16-.016.656-.016,1.1-.016,1.568,0,2.656.56,2.656,1.888,0,1.232-.944,2-2.5,2A3.706,3.706,0,0,1,114.944-2.4ZM131.312.192a3.8,3.8,0,0,0,3.824-4.064,3.791,3.791,0,0,0-3.824-4.048,3.791,3.791,0,0,0-3.824,4.048A3.8,3.8,0,0,0,131.312.192Zm0-1.072a2.7,2.7,0,0,1-2.576-2.992,2.7,2.7,0,0,1,2.576-2.976c1.648,0,2.56,1.408,2.56,2.976C133.872-2.288,132.96-.88,131.312-.88ZM142.3,0h1.2V-5.424a2.2,2.2,0,0,0-2.464-2.5,3.833,3.833,0,0,0-2.752,1.312v-1.12h-1.2V0h1.2V-5.648a2.984,2.984,0,0,1,2.288-1.2c1.04,0,1.728.432,1.728,1.792Zm9.376,0h1.328V-10.672H151.84L149.168-7.92l.8.816,1.712-1.808ZM157.1,0h1.328V-10.672h-1.168L154.592-7.92l.8.816L157.1-8.912Zm2.576.32h.944l3.792-11.312h-.944ZM167.264,0h1.328V-10.672h-1.168L164.752-7.92l.8.816,1.712-1.808Zm5.424,0h1.328V-10.672h-1.168L170.176-7.92l.8.816,1.712-1.808Zm2.576.32h.944L180-10.992h-.944Zm5.6-.32h7.328V-1.184H182.96c2.976-2.352,5.184-4.336,5.184-6.512,0-2.128-1.808-3.136-3.584-3.136a4.623,4.623,0,0,0-3.712,1.68l.816.848a3.568,3.568,0,0,1,2.9-1.344A2,2,0,0,1,186.784-7.7c0,1.84-2.08,3.616-5.92,6.64Zm9.36-5.328c0,2.592,1.152,5.52,4.08,5.52,2.912,0,4.08-2.928,4.08-5.52,0-2.608-1.168-5.5-4.08-5.5C191.376-10.832,190.224-7.936,190.224-5.328Zm6.8,0c0,2.128-.688,4.336-2.72,4.336s-2.72-2.208-2.72-4.336.688-4.32,2.72-4.32S197.024-7.456,197.024-5.328ZM202.048,0h1.328V-10.672h-1.168L199.536-7.92l.8.816,1.712-1.808Zm3.408-2.7c0,1.824,1.712,2.9,3.824,2.9,2.1,0,3.824-1.088,3.824-2.9a3.166,3.166,0,0,0-2.544-2.8,2.82,2.82,0,0,0,2.384-2.56c0-1.92-1.9-2.768-3.664-2.768-1.776,0-3.648.848-3.648,2.768A2.8,2.8,0,0,0,208-5.5,3.166,3.166,0,0,0,205.456-2.7ZM211.6-7.888c0,1.3-1.664,1.728-2.32,1.84-.64-.112-2.32-.544-2.32-1.84,0-1.1,1.024-1.76,2.32-1.76C210.56-9.648,211.6-8.992,211.6-7.888Zm.16,5.04c0,1.152-1.168,1.856-2.48,1.856-1.328,0-2.5-.7-2.5-1.856,0-1.392,1.84-1.984,2.5-2.064C209.936-4.832,211.76-4.24,211.76-2.848Z" transform="translate(2056.467 2263)" fill="#a5b4cc"/>
    <path id="Path_1914" data-name="Path 1914" d="M7.424,0H8.992L6.112-4.352a2.949,2.949,0,0,0,2.768-3.1,3.108,3.108,0,0,0-3.344-3.216H1.248V0H2.576V-4.24H4.7ZM7.5-7.456A2,2,0,0,1,5.376-5.408h-2.8v-4.08h2.8A1.984,1.984,0,0,1,7.5-7.456ZM10-3.872A3.832,3.832,0,0,0,13.936.192,4.2,4.2,0,0,0,17.008-.992l-.576-.784A3.378,3.378,0,0,1,14.048-.8a2.723,2.723,0,0,1-2.784-2.672H17.52v-.3c0-2.32-1.376-4.144-3.712-4.144A3.864,3.864,0,0,0,10-3.872Zm3.792-3.056a2.5,2.5,0,0,1,2.544,2.576H11.264A2.578,2.578,0,0,1,13.792-6.928Zm5.216,3.056A3.822,3.822,0,0,0,22.864.192,3.308,3.308,0,0,0,25.7-1.152l-.8-.736A2.33,2.33,0,0,1,22.928-.88a2.706,2.706,0,0,1-2.672-2.992,2.693,2.693,0,0,1,2.672-2.976A2.292,2.292,0,0,1,24.9-5.84l.8-.736A3.308,3.308,0,0,0,22.864-7.92,3.818,3.818,0,0,0,19.008-3.872Zm7.92,0A3.832,3.832,0,0,0,30.864.192,4.2,4.2,0,0,0,33.936-.992l-.576-.784A3.378,3.378,0,0,1,30.976-.8a2.723,2.723,0,0,1-2.784-2.672h6.256v-.3c0-2.32-1.376-4.144-3.712-4.144A3.864,3.864,0,0,0,26.928-3.872ZM30.72-6.928a2.5,2.5,0,0,1,2.544,2.576H28.192A2.578,2.578,0,0,1,30.72-6.928Zm6.256-2.1a.819.819,0,0,0,.816-.816.806.806,0,0,0-.816-.8.8.8,0,0,0-.8.8A.816.816,0,0,0,36.976-9.024ZM36.384,0h1.2V-7.728h-1.2Zm5.664,0H43.36l3.216-7.728H45.264L42.7-1.392,40.128-7.728h-1.3Zm5.328-3.872A3.832,3.832,0,0,0,51.312.192,4.2,4.2,0,0,0,54.384-.992l-.576-.784A3.378,3.378,0,0,1,51.424-.8,2.723,2.723,0,0,1,48.64-3.472H54.9v-.3c0-2.32-1.376-4.144-3.712-4.144A3.864,3.864,0,0,0,47.376-3.872Zm3.792-3.056a2.5,2.5,0,0,1,2.544,2.576H48.64A2.578,2.578,0,0,1,51.168-6.928ZM62.432,0h1.2V-10.672h-1.2V-6.56a3.231,3.231,0,0,0-2.608-1.36c-2.032,0-3.44,1.6-3.44,4.064,0,2.512,1.424,4.048,3.44,4.048a3.254,3.254,0,0,0,2.608-1.344Zm0-2.1A2.874,2.874,0,0,1,60.112-.88c-1.552,0-2.48-1.264-2.48-2.976s.928-2.992,2.48-2.992A2.9,2.9,0,0,1,62.432-5.6ZM74.992,0h1.2V-5.312c0-1.872-1.36-2.608-2.992-2.608a4.045,4.045,0,0,0-3.088,1.28l.56.832A3.07,3.07,0,0,1,73.04-6.88c1.12,0,1.952.592,1.952,1.632v1.392a3.231,3.231,0,0,0-2.56-1.056,2.531,2.531,0,0,0-2.7,2.544,2.573,2.573,0,0,0,2.7,2.56A3.343,3.343,0,0,0,74.992-.88Zm0-1.632a2.588,2.588,0,0,1-2.128.96,1.732,1.732,0,0,1-1.9-1.68,1.735,1.735,0,0,1,1.9-1.7,2.588,2.588,0,0,1,2.128.96ZM80.544.192a1.961,1.961,0,0,0,1.44-.5l-.352-.9a1.158,1.158,0,0,1-.816.32c-.528,0-.784-.416-.784-.992v-4.8H81.6V-7.728H80.032V-9.84h-1.2v2.112h-1.28v1.056h1.28v5.056A1.581,1.581,0,0,0,80.544.192ZM89.072,0H90.4V-10.672H89.232L86.56-7.92l.8.816,1.712-1.808Zm8.16,0H98.56V-2.7h1.5V-3.872h-1.5v-6.8H96.736L92.16-3.808v1.1h5.072Zm0-9.44v5.568H93.488Zm4.3,2.48a.888.888,0,0,0,.88.88.888.888,0,0,0,.88-.88.888.888,0,0,0-.88-.88A.888.888,0,0,0,101.536-6.96Zm0,6.24a.888.888,0,0,0,.88.88.888.888,0,0,0,.88-.88.888.888,0,0,0-.88-.88A.888.888,0,0,0,101.536-.72Zm3.776-.8a4.357,4.357,0,0,0,3.76,1.712,3.5,3.5,0,0,0,3.792-3.52,3.269,3.269,0,0,0-3.392-3.408,3.609,3.609,0,0,0-2.5.96V-9.488h5.2v-1.184h-6.528v5.76l.976.336a3.345,3.345,0,0,1,2.464-1.008,2.249,2.249,0,0,1,2.448,2.3,2.3,2.3,0,0,1-2.464,2.288A3.512,3.512,0,0,1,106.128-2.4Zm8.848-.048a4.5,4.5,0,0,0,3.792,1.76c2.352,0,3.776-1.3,3.776-3.072A2.684,2.684,0,0,0,119.264-5.5a2.6,2.6,0,0,0,2.3-2.48c0-1.808-1.568-2.848-3.616-2.848A4.623,4.623,0,0,0,114.3-9.184l.736.832a3.616,3.616,0,0,1,2.816-1.3c1.3,0,2.384.64,2.384,1.824,0,1.232-1.136,1.76-2.48,1.76-.432,0-.928,0-1.1-.016v1.216c.16-.016.656-.016,1.1-.016,1.568,0,2.656.56,2.656,1.888,0,1.232-.944,2-2.5,2A3.706,3.706,0,0,1,114.944-2.4ZM131.312.192a3.8,3.8,0,0,0,3.824-4.064,3.791,3.791,0,0,0-3.824-4.048,3.791,3.791,0,0,0-3.824,4.048A3.8,3.8,0,0,0,131.312.192Zm0-1.072a2.7,2.7,0,0,1-2.576-2.992,2.7,2.7,0,0,1,2.576-2.976c1.648,0,2.56,1.408,2.56,2.976C133.872-2.288,132.96-.88,131.312-.88ZM142.3,0h1.2V-5.424a2.2,2.2,0,0,0-2.464-2.5,3.833,3.833,0,0,0-2.752,1.312v-1.12h-1.2V0h1.2V-5.648a2.984,2.984,0,0,1,2.288-1.2c1.04,0,1.728.432,1.728,1.792Zm7.344-5.328c0,2.592,1.152,5.52,4.08,5.52,2.912,0,4.08-2.928,4.08-5.52,0-2.608-1.168-5.5-4.08-5.5C150.8-10.832,149.648-7.936,149.648-5.328Zm6.8,0c0,2.128-.688,4.336-2.72,4.336s-2.72-2.208-2.72-4.336.688-4.32,2.72-4.32S156.448-7.456,156.448-5.328ZM159.68-1.52A4.357,4.357,0,0,0,163.44.192a3.5,3.5,0,0,0,3.792-3.52,3.269,3.269,0,0,0-3.392-3.408,3.609,3.609,0,0,0-2.5.96V-9.488h5.2v-1.184h-6.528v5.76l.976.336a3.345,3.345,0,0,1,2.464-1.008,2.249,2.249,0,0,1,2.448,2.3A2.3,2.3,0,0,1,163.44-.992,3.512,3.512,0,0,1,160.5-2.4ZM168.064.32h.944L172.8-10.992h-.944ZM175.648,0h1.328V-10.672h-1.168L173.136-7.92l.8.816,1.712-1.808Zm5.424,0H182.4V-10.672h-1.168L178.56-7.92l.8.816,1.712-1.808Zm2.576.32h.944l3.792-11.312h-.944Zm5.6-.32h7.328V-1.184h-5.232c2.976-2.352,5.184-4.336,5.184-6.512,0-2.128-1.808-3.136-3.584-3.136a4.623,4.623,0,0,0-3.712,1.68l.816.848a3.568,3.568,0,0,1,2.9-1.344A2,2,0,0,1,195.168-7.7c0,1.84-2.08,3.616-5.92,6.64Zm9.36-5.328c0,2.592,1.152,5.52,4.08,5.52,2.912,0,4.08-2.928,4.08-5.52,0-2.608-1.168-5.5-4.08-5.5C199.76-10.832,198.608-7.936,198.608-5.328Zm6.8,0c0,2.128-.688,4.336-2.72,4.336s-2.72-2.208-2.72-4.336.688-4.32,2.72-4.32S205.408-7.456,205.408-5.328ZM210.432,0h1.328V-10.672h-1.168L207.92-7.92l.8.816,1.712-1.808Zm3.408-2.7c0,1.824,1.712,2.9,3.824,2.9,2.1,0,3.824-1.088,3.824-2.9a3.166,3.166,0,0,0-2.544-2.8,2.82,2.82,0,0,0,2.384-2.56c0-1.92-1.9-2.768-3.664-2.768-1.776,0-3.648.848-3.648,2.768a2.8,2.8,0,0,0,2.368,2.56A3.166,3.166,0,0,0,213.84-2.7Zm6.144-5.184c0,1.3-1.664,1.728-2.32,1.84-.64-.112-2.32-.544-2.32-1.84,0-1.1,1.024-1.76,2.32-1.76C218.944-9.648,219.984-8.992,219.984-7.888Zm.16,5.04c0,1.152-1.168,1.856-2.48,1.856-1.328,0-2.5-.7-2.5-1.856,0-1.392,1.84-1.984,2.5-2.064C218.32-4.832,220.144-4.24,220.144-2.848Z" transform="translate(2056.467 2364)" fill="#a5b4cc"/>
    <path id="Path_1909" data-name="Path 1909" d="M1.248,0H2.576V-10.672H1.248ZM12.624,0H13.9V-10.672H12.576V-2.24L6.432-10.672H5.072V0H6.4V-8.608Zm6.96,0h1.648l4.3-10.672h-1.52l-3.6,9.216-3.6-9.216H15.3Z" transform="translate(2004 2250)" fill="#808f9f"/>
    <path id="Path_1912" data-name="Path 1912" d="M6.256.192A4.853,4.853,0,0,0,10.368-1.92L9.232-2.544A3.582,3.582,0,0,1,6.256-.992,4.1,4.1,0,0,1,2.192-5.328,4.089,4.089,0,0,1,6.256-9.664,3.622,3.622,0,0,1,9.232-8.112l1.12-.624a4.8,4.8,0,0,0-4.1-2.112,5.327,5.327,0,0,0-5.44,5.52A5.327,5.327,0,0,0,6.256.192ZM19.616,0H20.9V-10.672H19.568V-2.24l-6.144-8.432h-1.36V0h1.328V-8.608Z" transform="translate(2006 2351)" fill="#61aca9"/>
    <path id="Path_1905" data-name="Path 1905" d="M1.42,0H6.38c4.16,0,6.98-2.74,6.98-6.66s-2.82-6.68-6.98-6.68H1.42ZM3.76-2.06v-9.22H6.38a4.322,4.322,0,0,1,4.58,4.62,4.381,4.381,0,0,1-4.58,4.6Zm11.86-4.6A6.618,6.618,0,0,0,22.44.24a6.618,6.618,0,0,0,6.82-6.9,6.618,6.618,0,0,0-6.82-6.9A6.618,6.618,0,0,0,15.62-6.66Zm11.24,0c0,2.74-1.74,4.82-4.42,4.82-2.7,0-4.42-2.08-4.42-4.82,0-2.76,1.72-4.82,4.42-4.82C25.12-11.48,26.86-9.42,26.86-6.66ZM38.42.24a6.1,6.1,0,0,0,5.46-3l-2-1.02a3.961,3.961,0,0,1-3.46,1.94,4.55,4.55,0,0,1-4.5-4.82,4.55,4.55,0,0,1,4.5-4.82,4,4,0,0,1,3.46,1.94l2-1.02a6.081,6.081,0,0,0-5.46-3,6.705,6.705,0,0,0-6.9,6.9A6.705,6.705,0,0,0,38.42.24Zm7.94-5.5c0,3.28,1.9,5.5,5.78,5.5,3.86,0,5.76-2.2,5.76-5.52v-8.06H55.54v8a3.161,3.161,0,0,1-3.4,3.5,3.167,3.167,0,0,1-3.42-3.5v-8H46.36ZM72.86,0H75.2V-13.34H71.9L68.26-4.36l-3.62-8.98h-3.3V0h2.34V-10.1L67.76,0h1l4.1-10.1Zm5.78,0h9.14V-2.06h-6.8v-3.7h6.66V-7.82H80.98v-3.46h6.8v-2.06H78.64Zm21.44,0h2.26V-13.34H100v9.46l-6.82-9.46h-2.4V0h2.34V-9.72Zm8.88,0h2.34V-11.28h4.04v-2.06H104.92v2.06h4.04Zm8-1.88A7.137,7.137,0,0,0,122.38.24c3.6,0,5.16-1.9,5.16-4.12,0-2.9-2.62-3.58-4.82-4.14-1.58-.4-2.94-.74-2.94-1.78,0-1,.88-1.66,2.26-1.66a5.423,5.423,0,0,1,3.86,1.52l1.34-1.74a6.941,6.941,0,0,0-5-1.86c-2.92,0-4.86,1.7-4.86,3.9,0,2.82,2.56,3.46,4.74,4,1.62.42,3.04.78,3.04,1.98,0,.88-.76,1.82-2.68,1.82a5.754,5.754,0,0,1-4.22-1.84Z" transform="translate(1998 2089)" fill="#bebebe"/>
    <g id="Repeat_Grid_55" data-name="Repeat Grid 55" transform="translate(2449.5 2023.5) rotate(-90)" clip-path="url(#clip-path-2)">
      <g transform="translate(-1516.5 -1446.5)">
        <line id="Line_2005" data-name="Line 2005" y2="4" transform="translate(1517.5 1446.5)" fill="none" stroke="#ffd927" stroke-width="1"/>
      </g>
      <g transform="translate(-1516.5 -1440.5)">
        <line id="Line_2005-2" data-name="Line 2005" y2="4" transform="translate(1517.5 1446.5)" fill="none" stroke="#ffd927" stroke-width="1"/>
      </g>
      <g transform="translate(-1516.5 -1434.5)">
        <line id="Line_2005-3" data-name="Line 2005" y2="4" transform="translate(1517.5 1446.5)" fill="none" stroke="#ffd927" stroke-width="1"/>
      </g>
      <g transform="translate(-1516.5 -1428.5)">
        <line id="Line_2005-4" data-name="Line 2005" y2="4" transform="translate(1517.5 1446.5)" fill="none" stroke="#ffd927" stroke-width="1"/>
      </g>
      <g transform="translate(-1516.5 -1422.5)">
        <line id="Line_2005-5" data-name="Line 2005" y2="4" transform="translate(1517.5 1446.5)" fill="none" stroke="#ffd927" stroke-width="1"/>
      </g>
      <g transform="translate(-1516.5 -1416.5)">
        <line id="Line_2005-6" data-name="Line 2005" y2="4" transform="translate(1517.5 1446.5)" fill="none" stroke="#ffd927" stroke-width="1"/>
      </g>
      <g transform="translate(-1516.5 -1410.5)">
        <line id="Line_2005-7" data-name="Line 2005" y2="4" transform="translate(1517.5 1446.5)" fill="none" stroke="#ffd927" stroke-width="1"/>
      </g>
      <g transform="translate(-1516.5 -1404.5)">
        <line id="Line_2005-8" data-name="Line 2005" y2="4" transform="translate(1517.5 1446.5)" fill="none" stroke="#ffd927" stroke-width="1"/>
      </g>
      <g transform="translate(-1516.5 -1398.5)">
        <line id="Line_2005-9" data-name="Line 2005" y2="4" transform="translate(1517.5 1446.5)" fill="none" stroke="#ffd927" stroke-width="1"/>
      </g>
      <g transform="translate(-1516.5 -1392.5)">
        <line id="Line_2005-10" data-name="Line 2005" y2="4" transform="translate(1517.5 1446.5)" fill="none" stroke="#ffd927" stroke-width="1"/>
      </g>
      <g transform="translate(-1516.5 -1386.5)">
        <line id="Line_2005-11" data-name="Line 2005" y2="4" transform="translate(1517.5 1446.5)" fill="none" stroke="#ffd927" stroke-width="1"/>
      </g>
      <g transform="translate(-1516.5 -1380.5)">
        <line id="Line_2005-12" data-name="Line 2005" y2="4" transform="translate(1517.5 1446.5)" fill="none" stroke="#ffd927" stroke-width="1"/>
      </g>
      <g transform="translate(-1516.5 -1374.5)">
        <line id="Line_2005-13" data-name="Line 2005" y2="4" transform="translate(1517.5 1446.5)" fill="none" stroke="#ffd927" stroke-width="1"/>
      </g>
      <g transform="translate(-1516.5 -1368.5)">
        <line id="Line_2005-14" data-name="Line 2005" y2="4" transform="translate(1517.5 1446.5)" fill="none" stroke="#ffd927" stroke-width="1"/>
      </g>
      <g transform="translate(-1516.5 -1362.5)">
        <line id="Line_2005-15" data-name="Line 2005" y2="4" transform="translate(1517.5 1446.5)" fill="none" stroke="#ffd927" stroke-width="1"/>
      </g>
      <g transform="translate(-1516.5 -1356.5)">
        <line id="Line_2005-16" data-name="Line 2005" y2="4" transform="translate(1517.5 1446.5)" fill="none" stroke="#ffd927" stroke-width="1"/>
      </g>
      <g transform="translate(-1516.5 -1350.5)">
        <line id="Line_2005-17" data-name="Line 2005" y2="4" transform="translate(1517.5 1446.5)" fill="none" stroke="#ffd927" stroke-width="1"/>
      </g>
      <g transform="translate(-1516.5 -1344.5)">
        <line id="Line_2005-18" data-name="Line 2005" y2="4" transform="translate(1517.5 1446.5)" fill="none" stroke="#ffd927" stroke-width="1"/>
      </g>
      <g transform="translate(-1516.5 -1338.5)">
        <line id="Line_2005-19" data-name="Line 2005" y2="4" transform="translate(1517.5 1446.5)" fill="none" stroke="#ffd927" stroke-width="1"/>
      </g>
      <g transform="translate(-1516.5 -1332.5)">
        <line id="Line_2005-20" data-name="Line 2005" y2="4" transform="translate(1517.5 1446.5)" fill="none" stroke="#ffd927" stroke-width="1"/>
      </g>
      <g transform="translate(-1516.5 -1326.5)">
        <line id="Line_2005-21" data-name="Line 2005" y2="4" transform="translate(1517.5 1446.5)" fill="none" stroke="#ffd927" stroke-width="1"/>
      </g>
      <g transform="translate(-1516.5 -1320.5)">
        <line id="Line_2005-22" data-name="Line 2005" y2="4" transform="translate(1517.5 1446.5)" fill="none" stroke="#ffd927" stroke-width="1"/>
      </g>
      <g transform="translate(-1516.5 -1314.5)">
        <line id="Line_2005-23" data-name="Line 2005" y2="4" transform="translate(1517.5 1446.5)" fill="none" stroke="#ffd927" stroke-width="1"/>
      </g>
      <g transform="translate(-1516.5 -1308.5)">
        <line id="Line_2005-24" data-name="Line 2005" y2="4" transform="translate(1517.5 1446.5)" fill="none" stroke="#ffd927" stroke-width="1"/>
      </g>
      <g transform="translate(-1516.5 -1302.5)">
        <line id="Line_2005-25" data-name="Line 2005" y2="4" transform="translate(1517.5 1446.5)" fill="none" stroke="#ffd927" stroke-width="1"/>
      </g>
      <g transform="translate(-1516.5 -1296.5)">
        <line id="Line_2005-26" data-name="Line 2005" y2="4" transform="translate(1517.5 1446.5)" fill="none" stroke="#ffd927" stroke-width="1"/>
      </g>
      <g transform="translate(-1516.5 -1290.5)">
        <line id="Line_2005-27" data-name="Line 2005" y2="4" transform="translate(1517.5 1446.5)" fill="none" stroke="#ffd927" stroke-width="1"/>
      </g>
      <g transform="translate(-1516.5 -1284.5)">
        <line id="Line_2005-28" data-name="Line 2005" y2="4" transform="translate(1517.5 1446.5)" fill="none" stroke="#ffd927" stroke-width="1"/>
      </g>
      <g transform="translate(-1516.5 -1278.5)">
        <line id="Line_2005-29" data-name="Line 2005" y2="4" transform="translate(1517.5 1446.5)" fill="none" stroke="#ffd927" stroke-width="1"/>
      </g>
    </g>
    <line id="Line_2006" data-name="Line 2006" x1="214.956" transform="translate(2009.543 2022.544)" fill="none" stroke="#21c6bf" stroke-width="1"/>
    <line id="Line_2050" data-name="Line 2050" x1="214.956" transform="translate(2215.543 2022.544)" fill="none" stroke="#21c6bf" stroke-width="1"/>
    <g id="Ellipse_400" data-name="Ellipse 400" transform="translate(1998 2002)" fill="#fff" stroke="#21c6bf" stroke-width="1">
      <circle cx="20.5" cy="20.5" r="20.5" stroke="none"/>
      <circle cx="20.5" cy="20.5" r="20" fill="none"/>
    </g>
    <g id="Ellipse_452" data-name="Ellipse 452" transform="translate(2204 2002)" fill="#fff" stroke="#21c6bf" stroke-width="1">
      <circle cx="20.5" cy="20.5" r="20.5" stroke="none"/>
      <circle cx="20.5" cy="20.5" r="20" fill="none"/>
    </g>
    <g id="Ellipse_454" data-name="Ellipse 454" transform="translate(2410 2002)" fill="#fff" stroke="#21c6bf" stroke-width="1">
      <circle cx="20.5" cy="20.5" r="20.5" stroke="none"/>
      <circle cx="20.5" cy="20.5" r="20" fill="none"/>
    </g>
    <circle id="Ellipse_406" data-name="Ellipse 406" cx="15.375" cy="15.375" r="15.375" transform="translate(2003.125 2007.125)" fill="#ebf6ff"/>
    <circle id="Ellipse_453" data-name="Ellipse 453" cx="15.375" cy="15.375" r="15.375" transform="translate(2209.125 2007.125)" fill="#ebf6ff"/>
    <circle id="Ellipse_455" data-name="Ellipse 455" cx="15.375" cy="15.375" r="15.375" transform="translate(2415.125 2007.125)" fill="#ebf6ff"/>
    <path id="Path_1644" data-name="Path 1644" d="M-10685.937-24157.719l3.8,3.563,6.044-7.266" transform="translate(12699.059 26180.77)" fill="none" stroke="#4b9ade" stroke-linecap="round" stroke-width="2"/>
    <path id="Path_1890" data-name="Path 1890" d="M-10685.937-24157.719l3.8,3.563,6.044-7.266" transform="translate(12905.059 26180.77)" fill="none" stroke="#4b9ade" stroke-linecap="round" stroke-width="2"/>
    <path id="Path_1891" data-name="Path 1891" d="M-10685.937-24157.719l3.8,3.563,6.044-7.266" transform="translate(13111.059 26180.77)" fill="none" stroke="#4b9ade" stroke-linecap="round" stroke-width="2"/>
    <g id="Ellipse_456" data-name="Ellipse 456" transform="translate(2616 2002)" fill="#fff" stroke="#ffd927" stroke-width="1">
      <circle cx="20.5" cy="20.5" r="20.5" stroke="none"/>
      <circle cx="20.5" cy="20.5" r="20" fill="none"/>
    </g>
    <circle id="Ellipse_457" data-name="Ellipse 457" cx="15.375" cy="15.375" r="15.375" transform="translate(2621.125 2007.125)" fill="#fff2b5"/>
    <path id="Path_1892" data-name="Path 1892" d="M-3779.5-18061.5s4.783,7.406,6.5,1,6.5,1,6.5,1" transform="translate(6409.5 20083.5)" fill="none" stroke="#ffd927" stroke-width="2"/>
    <rect id="Rectangle_3383" data-name="Rectangle 3383" width="308" height="760" transform="translate(2444 1709)" fill="url(#linear-gradient)"/>
  </g>
</svg>
